<?xml version="1.0" encoding="utf-8" ?>
<svg xmlns="http://www.w3.org/2000/svg" xmlns:xlink="http://www.w3.org/1999/xlink" width="512" height="512">
	<path fill="white" transform="scale(0.666667 0.666667)" d="M-0 -0L768 0L768 768L-0 768L0 -0Z"/>
	<path fill="#BBA8B7" transform="scale(0.666667 0.666667)" d="M70.6465 371.67C70.8407 370.807 70.9986 370.218 70.734 369.355C70.3081 367.968 70.4405 366.441 69.9961 365.184L69.8438 364.781L69.742 363.383C69.4168 361.871 69.5769 360.4 69.24 358.936L69.0938 358.406L68.9974 357.19C68.501 354.78 68.7343 352.455 68.25 350.062C68 348.828 68.0268 344.94 68.515 343.864C69.0531 343.991 69.0341 344.101 69.5273 343.745C70.3336 343.164 70.6807 342.702 71.7501 342.438C72.5237 342.247 73.0172 342.31 73.6788 341.813L74.0203 341.509C75.5076 341.472 76.6893 340.796 77.8298 339.856C78.691 339.145 79.6677 339.096 80.4556 338.431C80.8537 338.096 80.6195 338.189 81.1175 338.004L84.7273 336.75C86.0806 336.436 87.6059 335.993 89.0002 336.295L89.6877 336.479L90.3692 336.267L90.846 336.533L91.6199 336.246C92.1934 336.511 92.7937 336.723 93.2831 337.125C93.8361 340.511 93.0824 344.211 93.2831 347.625C93.3246 348.331 93.4048 348.872 93.2889 349.582L93.1912 350.062C93.7191 351.152 93.828 352.045 93.7099 353.25L93.6581 353.625C94.1017 354.512 94.0584 355.272 94.0331 356.25C94.0082 357.214 94.2447 357.61 94.4081 358.5C94.5608 359.331 94.4223 359.78 94.8726 360.553L95.2223 361.129C98.2484 383.672 105.844 404.12 120.42 421.863C123.798 425.974 128.029 429.321 131.368 433.34L131.064 433.969C131.812 434.682 132.504 435.145 133.312 435.75C134.405 436.567 135.66 437.426 136.679 438.312C137.137 438.709 137.578 438.926 138.107 439.207C138.708 439.526 139.236 439.94 139.781 440.344L139.856 440.853L139.291 441.109C138.262 441.648 138.085 442.123 137.713 443.167C137.39 444.076 136.93 444.485 136.241 445.116L136.204 445.417C135.918 446.635 135.084 447.326 134.201 448.104L133.33 449.123C132.272 450.299 129.42 451.7 127.873 452.023C125.438 452.532 122.511 453.381 120.235 454.367C118.982 453.194 117.757 451.918 116.358 450.926C114.525 449.625 112.187 445.758 110.067 445.581L109.794 445.452C108.937 444.813 108.09 443.64 107.362 442.839L100.716 434.804C86.2334 416.14 75.0374 395.052 70.6465 371.67Z"/>
	<path fill="#43B9CC" transform="scale(0.666667 0.666667)" d="M498.156 553.305L499.055 553.848L549.231 604.147C560.684 615.166 572.048 626.935 585.073 636.125L583.115 638.074C574.591 646.452 563.771 651.901 552.177 654.597C544.717 656.331 536.812 656.408 529.19 656.482L504.135 656.549L440.203 656.53C428.188 656.429 415.843 655.912 404.062 653.47C381.215 648.735 360.558 636.173 343.526 620.472C338.911 616.218 334.829 611.501 330.435 607.033C332.332 602.682 334.82 598.591 336.894 594.312C343.128 581.449 349.346 567.38 352.039 553.288L498.156 553.305Z"/>
	<path fill="#CEECEB" transform="scale(0.666667 0.666667)" d="M562.12 448.639L578.436 463.558L578.888 463.245C586.15 463.923 593.572 463.792 600.86 463.892C630.156 464.294 660.853 463.086 687.26 477.94C691.768 480.476 695.729 483.564 699.863 486.632C704.134 489.802 708.091 493.237 712.091 496.741C715.848 500.033 719.878 503.577 723.053 507.445C730.863 516.962 738.069 527.649 742.282 539.309C746.471 550.904 747.595 564.695 746.311 576.919C743.744 601.359 730.249 622.978 711.215 638.197C690.523 654.743 665.213 660.352 639.11 657.396C624.881 655.785 610.858 651.265 598.367 644.237L585.073 636.125C572.048 626.935 560.684 615.166 549.231 604.147L499.055 553.848L498.156 553.305C495.957 550.477 493.025 547.941 490.473 545.398L473.166 528.561L443.35 499.775L408.91 467.19L396.68 455.6C394.706 453.702 392.495 451.804 390.865 449.603L562.12 448.639Z"/>
	<defs>
		<linearGradient id="gradient_0" gradientUnits="userSpaceOnUse" x1="432.91354" y1="407.25836" x2="626.82129" y2="591.7384">
			<stop offset="0" stop-color="#AAE7E8"/>
			<stop offset="1" stop-color="#F7FFFD"/>
		</linearGradient>
	</defs>
	<path fill="url(#gradient_0)" transform="scale(0.666667 0.666667)" d="M562.12 448.639L578.436 463.558L600.375 484.625L617.423 500.653L643.601 524.731L657.305 537.302C661.253 540.841 665.86 544.355 668.849 548.77C667.866 549.937 666.121 552.358 664.69 552.848C663.819 553.146 662.474 553.176 661.552 553.263C656.518 553.738 651.273 553.485 646.208 553.504L618.699 553.569L530.114 553.539L509.137 553.51C506.029 553.502 501.986 552.954 499.055 553.848L498.156 553.305C495.957 550.477 493.025 547.941 490.473 545.398L473.166 528.561L443.35 499.775L408.91 467.19L396.68 455.6C394.706 453.702 392.495 451.804 390.865 449.603L562.12 448.639Z"/>
	<path fill="#31ABC1" transform="scale(0.666667 0.666667)" d="M131.368 433.34C139.066 439.622 147.978 445.128 157.688 447.678C162.143 448.848 166.6 449.313 171.172 449.672L390.865 449.603C392.495 451.804 394.706 453.702 396.68 455.6L408.91 467.19L443.35 499.775L473.166 528.561L490.473 545.398C493.025 547.941 495.957 550.477 498.156 553.305L352.039 553.288C349.346 567.38 343.128 581.449 336.894 594.312C334.82 598.591 332.332 602.682 330.435 607.033L327.706 611.952C314.823 632.86 293.82 649.34 269.77 654.948C257.942 657.707 245.089 657.078 233.007 657.167L192.062 657.411L141.303 657.358C127.834 657.337 114.13 657.847 100.767 655.985C87.9085 654.193 76.4271 650.824 65.3438 643.907C50.2878 634.51 39.7313 620.115 32.6386 604.12C30.2601 598.756 28.0173 593.172 26.7181 587.438C20.6635 560.71 26.5983 532.901 41.1377 509.886C58.6792 482.12 87.0394 462.291 119.054 455.01C118.811 453.869 117.523 452.987 116.675 452.17L110.067 445.581C112.187 445.758 114.525 449.625 116.358 450.926C117.757 451.918 118.982 453.194 120.235 454.367C122.511 453.381 125.438 452.532 127.873 452.023C129.42 451.7 132.272 450.299 133.33 449.123L134.201 448.104C135.084 447.326 135.918 446.635 136.204 445.417L136.241 445.116C136.93 444.485 137.39 444.076 137.713 443.167C138.085 442.123 138.262 441.648 139.291 441.109L139.856 440.853L139.781 440.344C139.236 439.94 138.708 439.526 138.107 439.207C137.578 438.926 137.137 438.709 136.679 438.312C135.66 437.426 134.405 436.567 133.312 435.75C132.504 435.145 131.812 434.682 131.064 433.969L131.368 433.34Z"/>
	<path fill="#43B9CC" transform="scale(0.666667 0.666667)" d="M131.368 433.34C139.066 439.622 147.978 445.128 157.688 447.678C162.143 448.848 166.6 449.313 171.172 449.672L171.507 449.735C176.249 450.545 181.871 450.023 186.732 450.038L219.59 449.994C223.453 449.978 228.242 449.434 231.987 450.081C237.411 458.101 244.999 463.987 251.945 470.585L298.419 513.608L324.134 538.43C328.393 542.687 332.427 547.547 336.928 551.502C337.401 551.918 337.727 552.318 338.094 552.826L336.968 553.026C330.042 553.661 322.485 553.086 315.486 553.102L266.099 552.975L224.416 552.797C215.605 552.773 205.937 553.51 197.26 551.783C185.662 549.474 175.267 544.202 166.114 536.764C152.878 526.007 140.751 508.594 140.666 491.007C140.651 487.835 140.967 484.703 141.501 481.58C141.806 479.801 142.623 477.64 142.447 475.877L141.75 475.691L141.128 475.435C139.326 474.92 138.633 473.875 137.105 472.976C132.178 470.078 126.983 466.663 122.479 463.137C119.465 460.778 119.46 458.602 119.054 455.01C118.811 453.869 117.523 452.987 116.675 452.17L110.067 445.581C112.187 445.758 114.525 449.625 116.358 450.926C117.757 451.918 118.982 453.194 120.235 454.367C122.511 453.381 125.438 452.532 127.873 452.023C129.42 451.7 132.272 450.299 133.33 449.123L134.201 448.104C135.084 447.326 135.918 446.635 136.204 445.417L136.241 445.116C136.93 444.485 137.39 444.076 137.713 443.167C138.085 442.123 138.262 441.648 139.291 441.109L139.856 440.853L139.781 440.344C139.236 439.94 138.708 439.526 138.107 439.207C137.578 438.926 137.137 438.709 136.679 438.312C135.66 437.426 134.405 436.567 133.312 435.75C132.504 435.145 131.812 434.682 131.064 433.969L131.368 433.34Z"/>
	<path fill="#6DCEDA" transform="scale(0.666667 0.666667)" d="M171.172 449.672L390.865 449.603C392.495 451.804 394.706 453.702 396.68 455.6L408.91 467.19L443.35 499.775L473.166 528.561L490.473 545.398C493.025 547.941 495.957 550.477 498.156 553.305L352.039 553.288C347.663 552.549 342.556 552.877 338.094 552.826C337.727 552.318 337.401 551.918 336.928 551.502C332.427 547.547 328.393 542.687 324.134 538.43L298.419 513.608L251.945 470.585C244.999 463.987 237.411 458.101 231.987 450.081C228.242 449.434 223.453 449.978 219.59 449.994L186.732 450.038C181.871 450.023 176.249 450.545 171.507 449.735L171.172 449.672Z"/>
	<path fill="#FF8EA5" transform="scale(0.666667 0.666667)" d="M70.6465 371.67C62.1794 335.17 71.3785 297.672 91.0092 266.333C106.071 242.288 129.028 221.073 155.076 209.484C162.885 206.01 171.133 203.57 179.456 201.67C199.034 197.202 218.35 196.442 237.631 202.878C243.193 204.734 248.558 207.299 254.003 209.488C258.182 199.937 260.692 189.768 265.185 180.285C279.75 149.543 306.94 123.314 338.636 110.82C358.515 102.985 379.194 100.646 400.392 100.321C426.356 99.9225 453.675 102.808 477.665 113.333C488.667 118.16 499.332 123.783 509.061 130.87C528.947 145.356 546.333 165.484 558.835 186.637C563.334 194.25 567.436 201.98 570.624 210.245C574.228 219.586 576.983 229.014 578.091 238.988C578.659 244.101 578.623 249.342 578.649 254.481C589.742 254.808 600.7 255.437 611.562 257.883C632.509 262.599 650.196 274.282 664.791 289.762C681.848 307.853 691.845 334.477 691.011 359.344C690.797 365.717 690.332 372.111 689.074 378.371C684.845 399.403 673.863 418.359 658.142 432.878C645.694 444.374 629.944 452.036 613.245 454.827C607.16 455.844 600.913 456.154 594.75 456.271L586.952 456.357C586.492 456.361 585.188 456.273 584.827 456.531C582.894 457.91 580.312 461.338 578.888 463.245L578.436 463.558L562.12 448.639L390.865 449.603L171.172 449.672C166.6 449.313 162.143 448.848 157.688 447.678C147.978 445.128 139.066 439.622 131.368 433.34C128.029 429.321 123.798 425.974 120.42 421.863C105.844 404.12 98.2484 383.672 95.2223 361.129L94.8726 360.553C94.4223 359.78 94.5608 359.331 94.4081 358.5C94.2447 357.61 94.0082 357.214 94.0331 356.25C94.0584 355.272 94.1017 354.512 93.6581 353.625L93.7099 353.25C93.828 352.045 93.7191 351.152 93.1912 350.062L93.2889 349.582C93.4048 348.872 93.3246 348.331 93.2831 347.625C93.0824 344.211 93.8361 340.511 93.2831 337.125C92.7937 336.723 92.1934 336.511 91.6199 336.246L90.846 336.533L90.3692 336.267L89.6877 336.479L89.0002 336.295C87.6059 335.993 86.0806 336.436 84.7273 336.75L81.1175 338.004C80.6195 338.189 80.8537 338.096 80.4556 338.431C79.6677 339.096 78.691 339.145 77.8298 339.856C76.6893 340.796 75.5076 341.472 74.0203 341.509L73.6788 341.813C73.0172 342.31 72.5237 342.247 71.7501 342.438C70.6807 342.702 70.3336 343.164 69.5273 343.745C69.0341 344.101 69.0531 343.991 68.515 343.864C68.0268 344.94 68 348.828 68.25 350.062C68.7343 352.455 68.501 354.78 68.9974 357.19L69.0938 358.406L69.24 358.936C69.5769 360.4 69.4168 361.871 69.742 363.383L69.8438 364.781L69.9961 365.184C70.4405 366.441 70.3081 367.968 70.734 369.355C70.9986 370.218 70.8407 370.807 70.6465 371.67Z"/>
	<defs>
		<linearGradient id="gradient_1" gradientUnits="userSpaceOnUse" x1="140.35118" y1="461.58167" x2="469.99408" y2="282.03891">
			<stop offset="0" stop-color="#FFD3D4"/>
			<stop offset="1" stop-color="white"/>
		</linearGradient>
	</defs>
	<path fill="url(#gradient_1)" transform="scale(0.666667 0.666667)" d="M95.2223 361.129C94.1947 352.803 93.4414 344.395 93.828 336C94.8996 312.732 103.091 290.523 117.414 272.154C132.523 252.777 152.394 236.987 175.602 228.538C181.725 226.309 188.092 224.358 194.596 223.645C210.853 221.864 225.521 227.577 237.989 237.763C241.49 240.623 245.629 244.096 248.292 247.786C262.214 232.532 282.609 226.088 302.766 225.149C329.469 223.905 353.85 236.48 373.133 254.13C381.669 261.944 389.542 270.811 394.118 281.566C395.113 283.904 395.99 286.291 396.731 288.721C396.982 289.545 397.245 291.319 397.692 291.989C398.263 292.846 399.801 293.893 400.627 294.636L408.375 301.498L432.353 323.87L535.478 423.179L562.12 448.639L390.865 449.603L171.172 449.672C166.6 449.313 162.143 448.848 157.688 447.678C147.978 445.128 139.066 439.622 131.368 433.34C128.029 429.321 123.798 425.974 120.42 421.863C105.844 404.12 98.2484 383.672 95.2223 361.129Z"/>
</svg>
