<?xml version="1.0" encoding="utf-8" ?>
<svg xmlns="http://www.w3.org/2000/svg" xmlns:xlink="http://www.w3.org/1999/xlink" width="512" height="512">
	<path fill="white" transform="scale(0.666667 0.666667)" d="M-0 -0L768 0L768 768L-0 768L0 -0Z"/>
	<path fill="#57C4DD" transform="scale(0.666667 0.666667)" d="M317.047 360.562C318.776 360.245 323.102 360.147 324.697 360.753C324.98 362.047 324.777 363.379 324.667 364.688L324.12 364.841C322.571 365.069 318.158 365.244 316.937 364.5C316.783 363.098 316.79 361.951 317.047 360.562Z"/>
	<path fill="#57C4DD" transform="scale(0.666667 0.666667)" d="M316.839 344.75L325.157 344.734L325.225 349.444L316.832 349.45L316.839 344.75Z"/>
	<path fill="#57C4DD" transform="scale(0.666667 0.666667)" d="M316.941 419.062C319.306 418.34 323.137 418.836 325.678 418.825L325.718 423.35C323.621 423.376 318.634 424.024 316.946 423C316.723 421.699 316.867 420.373 316.941 419.062Z"/>
	<path fill="#32B2C8" transform="scale(0.666667 0.666667)" d="M316.791 405.335L325.482 405.319L325.459 410.185L316.846 410.21L316.791 405.335Z"/>
	<path fill="#57C4DD" transform="scale(0.666667 0.666667)" d="M316.641 375.173L325.15 375.231L325.055 380.202L316.892 380.199C316.384 378.731 316.639 376.738 316.641 375.173Z"/>
	<path fill="#57C4DD" transform="scale(0.666667 0.666667)" d="M316.891 314.805L325.473 314.919L325.476 319.876L316.871 319.81L316.891 314.805Z"/>
	<path fill="#32B2C8" transform="scale(0.666667 0.666667)" d="M316.611 329.662L325.449 329.656L325.483 334.588L316.653 334.598L316.611 329.662Z"/>
	<path fill="#57C4DD" transform="scale(0.666667 0.666667)" d="M316.967 389.972L325.182 389.993L325.151 395.5L317.008 395.468L316.967 389.972Z"/>
	<path fill="#57C4DD" transform="scale(0.666667 0.666667)" d="M316.952 298.477L325.229 298.489L325.124 304.993L316.752 305.148L316.952 298.477Z"/>
	<path fill="#D2F1F2" transform="scale(0.666667 0.666667)" d="M447.404 337.833C447.099 337.436 446.786 337.072 446.687 336.562C446.451 335.343 446.407 334.001 447.188 333.049C449.927 332.937 460.922 332.326 462.404 333.375L462.379 335.637L462.42 337.312L447.404 337.833Z"/>
	<path fill="#C4EFEE" transform="scale(0.666667 0.666667)" d="M697.728 305.434C697.737 302.595 697.084 297.709 697.987 295.146L712.122 295.004L712.127 305.434L697.728 305.434Z"/>
	<path fill="#D2F1F2" transform="scale(0.666667 0.666667)" d="M411.601 324.011L441.789 323.975L441.76 329.709L411.656 329.268L411.601 324.011Z"/>
	<path fill="#D2F1F2" transform="scale(0.666667 0.666667)" d="M576.971 323.581L611.655 323.693L611.693 328.867L577.07 328.754L576.971 323.581Z"/>
	<path fill="#DEF5F6" transform="scale(0.666667 0.666667)" d="M462.379 335.637L462.724 335.737C464.574 335.834 466.613 335.561 468.518 335.627L502.667 336.273L576.784 335.252C576.867 336.181 577.067 337.262 577.032 338.185C574.985 337.921 572.485 338.209 570.382 338.2L555.75 338.116L487.966 338.291L466.998 337.963C464.062 337.927 460.331 337.507 457.486 338.233C456.711 338.431 456.646 338.304 455.906 338.061L455.128 338.323C453.384 338.702 448.831 338.735 447.404 337.833L462.42 337.312L462.379 335.637Z"/>
	<path fill="#D2F1F2" transform="scale(0.666667 0.666667)" d="M712.127 305.434L712.545 338.983L697.704 330.28L697.548 330.038L697.538 320.028L697.728 305.434L712.127 305.434Z"/>
	<path fill="#DEF5F6" transform="scale(0.666667 0.666667)" d="M377.83 366.048C381.018 366.004 384.418 365.515 387.571 365.768C388.362 365.832 388.845 365.829 389.612 365.539C389.708 368.093 389.91 370.51 389.228 372.999L389.074 373.657L381.811 376.168L381.219 376.903C378.678 377.614 376.299 378.499 373.634 378.421L373.341 378.426C373.449 379.752 373.735 380.482 373.036 381.641L366.938 383.943C362.467 385.944 358.467 387.496 353.699 388.66L345.006 389.898C343.349 390.115 341.381 390.142 339.847 390.802C338.896 389.984 338.467 389.418 338.117 388.199C337.862 387.307 337.123 384.651 337.51 383.909C344.495 383.866 351.477 384.207 358.331 382.678L359.717 380.308C361.46 377.338 360.96 372.51 361.077 369.093L360.711 366.375C362.402 365.315 374.928 366.039 377.83 366.048Z"/>
	<path fill="#C4EFEE" transform="scale(0.666667 0.666667)" d="M373.341 378.426L372.902 378L372.938 375.968C373.252 375.625 373.215 375.624 373.688 375.342C375.097 374.5 379.405 374.335 380.959 374.847C381.609 375.061 381.585 375.582 381.811 376.168L381.219 376.903C378.678 377.614 376.299 378.499 373.634 378.421L373.341 378.426Z"/>
	<path fill="#D2F1F2" transform="scale(0.666667 0.666667)" d="M361.077 369.093L360.711 366.375C362.402 365.315 374.928 366.039 377.83 366.048C379.618 366.358 381.32 366.595 383.141 366.637C383.507 367.239 383.404 366.938 383.509 367.52L384.668 367.688L384.681 368.149C382.534 369.024 379.796 368.876 377.506 368.785L366.618 368.661C364.863 368.679 362.752 368.537 361.077 369.093Z"/>
	<path fill="#D2F1F2" transform="scale(0.666667 0.666667)" d="M434.714 340.78L435.772 341.215L435.909 341.717C436.532 344.177 435.854 347.021 436.312 349.59C437.107 349.503 436.688 349.637 437.382 349.191C439.705 347.701 443.525 348.836 445.901 347.261L447.61 344.709L472.874 345.302L472.897 354.026C472.958 355.509 473.184 357.006 472.57 358.393L462.038 356.82L446.959 356.135L435.187 355.888L420.375 355.447L420.016 356.272C419.026 357.315 418.143 357.438 416.868 357.987C415.519 358.569 414.178 359.462 412.869 360.155C413.207 358.758 414.334 357.719 415.202 356.613C416.471 354.996 417.836 353.2 418.729 351.345C420.221 348.248 420.592 344.437 420.949 341.051C425.307 341.168 429.911 341.346 434.239 340.841L434.714 340.78Z"/>
	<path fill="#E5F6F6" transform="scale(0.666667 0.666667)" d="M435.772 341.215L435.909 341.717C436.532 344.177 435.854 347.021 436.312 349.59C437.107 349.503 436.688 349.637 437.382 349.191C439.705 347.701 443.525 348.836 445.901 347.261C445.5 349.894 445.547 352.672 445.448 355.336L436.054 355.322C435.588 354.02 435.783 352.21 435.766 350.835L435.772 341.215Z"/>
	<path fill="#DEF5F6" transform="scale(0.666667 0.666667)" d="M634.391 321.695C635.075 320.992 635.81 321.037 636.75 320.85C636.75 320.527 636.788 320.675 636.585 320.344C635.761 319.001 635.974 316.638 635.905 315.067L664.905 315.454L664.871 301.911L695.812 303.701L696.39 304.5L696.188 305.367C695.305 305.846 694.26 305.679 693.285 305.676L685.853 305.627C685.392 309.404 685.603 313.35 685.597 317.154C685.633 318.687 685.923 320.016 685.12 321.359C681.782 319.288 678.757 317.759 674.953 316.684C672.541 318.884 670.346 321.141 668.517 323.861C664.123 327.526 659.316 330.878 655.5 335.159L654.747 335.251L653.202 335.682L653.112 336.061C652.828 337.328 652.873 338.119 652.975 339.375C652.979 339.417 653.02 340.296 653.008 340.312C652.764 340.624 652.359 340.766 652.028 340.982C651.548 341.296 651.686 341.197 651.032 341.462L650.982 341.686L649.875 342.184C649.257 341.696 649.072 341.138 648.782 340.433L648.658 340.125C648.092 339.672 647.801 339.614 647.083 339.564C646.632 339.801 646.26 340.054 645.731 340.034C644.647 339.993 643.554 339.835 642.471 339.99L641.358 340.145C640.63 340.1 640.29 339.754 639.837 339.253C639.752 338.647 639.651 338.198 639.414 337.625L639.191 337.125C639.804 336.203 639.514 335.69 640.312 334.691L653.25 334.691L653.25 322.125L634.879 321.754L634.777 329.687L634.316 329.625L634.391 321.695Z"/>
	<path fill="#32B2C8" transform="scale(0.666667 0.666667)" d="M651.032 341.462C649.657 340.721 649.295 339.594 648.27 338.438C646.089 339.206 643.198 339.234 640.911 339.188L640.382 338.438C640.274 337.394 640.086 336.593 640.688 335.66C642.382 335.57 643.969 335.503 645.66 335.749L645.52 337.27C645.408 338.071 645.476 337.95 645.867 338.594L646.312 338.696C646.964 337.418 647.139 337.289 646.908 335.812L653.202 335.682L653.112 336.061C652.828 337.328 652.873 338.119 652.975 339.375C652.979 339.417 653.02 340.296 653.008 340.312C652.764 340.624 652.359 340.766 652.028 340.982C651.548 341.296 651.686 341.197 651.032 341.462Z"/>
	<path fill="#E5F6F6" transform="scale(0.666667 0.666667)" d="M389.661 364.325L392.665 354.63L412.006 354.336L411.942 337.638C408.871 338.05 405.452 337.643 402.345 337.612L380.955 337.408L325.688 336.69L325.322 336.188L325.678 335.252L444.562 334.098C445.506 334.612 445.46 334.612 445.834 335.627C444.749 336.936 438.742 336.429 436.767 337.063C435.717 337.401 435.826 337.706 435.322 338.625L435.843 338.874L436.422 337.797C439.109 336.412 442.672 337.406 445.511 336.601L445.961 336.461L446.25 336.938C446.6 337.475 446.888 337.789 447 338.438C447.54 341.576 447.202 344.49 445.219 346.969C443.898 347.535 443.139 347.285 441.938 347.625C441.169 347.843 440.374 347.79 439.688 348C438.982 348.215 438.48 348.202 437.812 348.375C436.591 348.692 437.728 348.738 436.5 348.562C436.518 346.189 436.912 343.022 436.219 340.781C435.408 340.511 435.579 340.414 434.714 340.78L434.239 340.841C429.911 341.346 425.307 341.168 420.949 341.051C420.592 344.437 420.221 348.248 418.729 351.345C417.836 353.2 416.471 354.996 415.202 356.613C414.334 357.719 413.207 358.758 412.869 360.155C411.152 361.707 408.635 363.179 407.411 365.123L407.241 365.474C403.117 367.929 398.897 369.858 394.418 371.572L389.074 373.657L389.228 372.999C389.91 370.51 389.708 368.093 389.612 365.539L389.661 364.325Z"/>
	<path fill="#D2F1F2" transform="scale(0.666667 0.666667)" d="M389.661 364.325L399.391 364.336C401.266 364.269 405.781 363.535 407.205 364.379L407.411 365.123L407.241 365.474C403.117 367.929 398.897 369.858 394.418 371.572L389.074 373.657L389.228 372.999C389.91 370.51 389.708 368.093 389.612 365.539L389.661 364.325Z"/>
	<path fill="#32B2C8" transform="scale(0.666667 0.666667)" d="M299.788 297.88L312.542 297.85L312.474 305.177L304.548 305.254L304.538 314.985L312.282 314.968L312.307 319.86L304.526 319.952L304.535 329.668L311.97 329.661L312.007 334.908L304.452 334.927L304.471 344.442L311.847 344.553L311.926 349.714L304.415 349.773L304.502 359.984L311.886 360.066L311.929 365.193L304.365 365.232L304.414 375.086L312.323 375.229L312.29 380.186L304.672 380.226C303.843 382.696 304.528 387.277 304.563 389.989L312.425 390.032C312.439 391.738 312.626 393.635 312.188 395.289L310.688 395.457L304.461 395.549L304.525 405.171L312.076 405.41L312.103 410.272L304.635 410.539C303.934 412.772 304.476 416.465 304.505 418.871L311.968 418.922L311.966 423.504L295.997 423.412C295.375 419.925 295.778 416.056 295.756 412.51L295.589 389.916L295.591 337.668L295.643 305.4C295.684 303.871 295.672 302.009 296.325 300.609C297.071 299.012 298.163 298.371 299.788 297.88Z"/>
	<path fill="#FFE1E0" transform="scale(0.666667 0.666667)" d="M389.074 373.657L394.418 371.572C394.429 376.455 393.657 421.583 394.5 423.067L396.102 423.409C392.019 423.685 387.668 423.181 383.552 423.189C382.669 423.191 381.858 423.487 380.971 423.502L366.443 423.215L341.649 423.502C340.989 423.488 340.633 423.373 340.078 423.023C339.577 419.735 339.972 415.962 339.977 412.608L339.847 390.802C341.381 390.142 343.349 390.115 345.006 389.898L353.699 388.66C358.467 387.496 362.467 385.944 366.938 383.943L373.036 381.641C373.735 380.482 373.449 379.752 373.341 378.426L373.634 378.421C376.299 378.499 378.678 377.614 381.219 376.903L381.811 376.168L389.074 373.657Z"/>
	<path fill="#FF94A2" transform="scale(0.666667 0.666667)" d="M353.699 388.66L354.435 389.25L354.592 423.093C350.008 423.104 344.559 423.7 340.078 423.023C339.577 419.735 339.972 415.962 339.977 412.608L339.847 390.802C341.381 390.142 343.349 390.115 345.006 389.898L353.699 388.66Z"/>
	<path fill="#FF94A2" transform="scale(0.666667 0.666667)" d="M381.219 376.903C381.994 381.744 381.639 387.229 381.684 392.145L381.815 423.185L367.213 423.137L367.222 396.607C367.206 392.517 367.554 387.956 366.938 383.943L373.036 381.641C373.735 380.482 373.449 379.752 373.341 378.426L373.634 378.421C376.299 378.499 378.678 377.614 381.219 376.903Z"/>
	<path fill="#C34470" transform="scale(0.666667 0.666667)" d="M250.596 279.455C255.178 280.653 260.698 281.093 264.966 282.987L265.348 283.142C263.624 288.784 261.731 294.265 259.122 299.572C249.479 319.191 232.641 336.351 213.375 346.546C203.002 352.034 192.064 356.134 180.469 358.113C162.586 361.163 143.768 358.658 126.586 353.28L112.127 347.196C112.628 344.782 113.863 342.481 114.611 340.125C115.094 338.604 115.404 335.892 116.318 334.701C116.489 334.478 116.782 334.384 117.015 334.226C123.067 337.604 130.006 339.883 136.672 341.745C161.395 348.651 187.016 344.807 209.25 332.18C229.451 320.707 244.302 301.86 250.596 279.455Z"/>
	<path fill="#FFE1E0" transform="scale(0.666667 0.666667)" d="M685.597 317.154L689.274 317.521C692.214 317.813 694.953 318.596 697.538 320.028L697.548 330.038L697.704 330.28L712.545 338.983L712.376 396.542L712.325 414.073C712.31 417.071 712.526 420.374 712.097 423.325C711.157 424.014 709.684 423.753 708.556 423.757C705.367 423.768 701.773 424.098 698.625 423.736C692.119 422.987 685.277 423.9 678.676 423.416L684.808 423.356L685.131 321.81L685.12 321.359C685.923 320.016 685.633 318.687 685.597 317.154Z"/>
	<path fill="#E5F6F6" transform="scale(0.666667 0.666667)" d="M685.597 317.154L689.274 317.521C692.214 317.813 694.953 318.596 697.538 320.028L697.548 330.038C694.263 327.204 689.099 323.482 685.131 321.81L685.12 321.359C685.923 320.016 685.633 318.687 685.597 317.154Z"/>
	<path fill="#FF94A2" transform="scale(0.666667 0.666667)" d="M697.704 330.28L712.545 338.983L712.376 396.542L712.325 414.073C712.31 417.071 712.526 420.374 712.097 423.325L697.691 423.366L697.63 360.374L697.544 340.556C697.531 337.242 697.19 333.547 697.704 330.28Z"/>
	<defs>
		<linearGradient id="gradient_0" gradientUnits="userSpaceOnUse" x1="170.55179" y1="615.76367" x2="171.50565" y2="542.315">
			<stop offset="0" stop-color="#00587F"/>
			<stop offset="1" stop-color="#067094"/>
		</linearGradient>
	</defs>
	<path fill="url(#gradient_0)" transform="scale(0.666667 0.666667)" d="M65.8402 525.637L66.1602 525.042L66.3724 525.938C66.5913 526.66 66.8031 527.26 66.9199 528.018C67.0275 528.716 67.0795 529.36 67.3382 530.025L67.7386 531.073C68.1273 533.138 69.0327 535.329 69.2634 537.323C69.3144 537.765 69.3369 538.081 69.5262 538.491C70.1095 539.757 70.3605 540.979 71.0105 542.229L71.7305 542.436L72.6035 541.52L73.4723 541.896C74.8322 542.281 76.935 542.228 78.1219 541.561C79.1346 541.701 79.2126 541.439 80.0625 540.941C80.0625 539.694 79.2605 539.024 79.1448 537.935L79.125 537.562C78.9519 536.969 78.6956 536.496 78.5625 535.875L77.25 530.812C76.9398 529.941 77.0169 530.373 76.9321 529.548C76.8478 528.728 76.7465 528.009 76.4081 527.25C75.959 526.242 76.372 525.725 76.125 524.812C75.7154 523.299 75.9016 524.762 75.791 523.72L75.75 523.312C75.5432 522.543 75.4316 522.056 75.375 521.25L75.9959 520.958C77.2484 528.507 78.9306 535.959 81.7587 543.089C88.5447 560.2 101.665 575.546 116.615 586.209C139.652 602.642 170.24 606.583 197.649 601.972C221.839 597.902 243.878 583.452 257.988 563.533C262.509 557.15 266.18 550.348 269.137 543.111L269.521 543.995C268.84 545.716 268.178 547.448 267.375 549.117C266.309 551.33 264.72 553.455 265.001 555.937L266.224 555.821L266.664 556.406C267.325 557.26 268.158 557.493 268.87 558.236C269.48 558.872 270.246 559.238 271.01 559.662L271.149 560.33C271.329 560.886 271.744 561.461 272.066 561.938L273 561.188L273.002 560.719L273.375 560.25L274.512 558.574C274.907 557.981 274.804 557.789 275.062 557.25L275.625 556.5L276.656 554.439L277.211 553.332L277.373 554.186C277.249 555.135 276.392 556.393 275.947 557.252C274.461 560.121 272.798 562.91 270.969 565.573C253.797 590.569 227.921 609.478 197.85 615.058C169.133 620.387 136.666 613.968 112.584 597.311C87.5856 580.02 71.3057 555.597 65.8402 525.637Z"/>
	<path fill="#FF94A2" transform="scale(0.666667 0.666667)" d="M609.234 603.348L642.09 603.461C646.486 603.468 651.804 602.909 656.109 603.617C657.263 603.807 658.236 604.462 659.067 605.259C659.916 606.073 660.642 607.085 660.687 608.3C660.758 610.209 659.956 611.906 658.576 613.196C657.687 614.027 656.524 614.591 655.312 614.724C652.302 615.057 648.882 614.644 645.836 614.6L627.215 614.537L556.778 614.335L409.408 614.308L365.398 614.27L353.377 614.27C351.356 614.271 349.058 614.471 347.062 614.202C345.936 614.049 344.764 613.235 344.114 612.308C342.971 610.68 343.191 608.506 343.587 606.673C343.767 605.839 344.593 604.915 345.295 604.45C345.738 604.158 346.22 603.871 346.74 603.76L609.234 603.348Z"/>
	<path fill="#FF94A2" transform="scale(0.666667 0.666667)" d="M668.517 323.861C670.346 321.141 672.541 318.884 674.953 316.684C678.757 317.759 681.782 319.288 685.12 321.359L685.131 321.81L684.808 423.356L678.676 423.416L668.816 423.32L656.198 423.334L639.78 423.369L628.395 423.442L628.205 372.271L628.267 361.494C628.313 359.366 628.647 356.937 628.148 354.872L628.149 354.838C631.907 351.926 635.594 349.899 639.876 347.841C641.583 346.534 643.33 345.481 645.315 344.653C647.348 343.804 649.475 343.383 650.982 341.686L651.032 341.462C651.686 341.197 651.548 341.296 652.028 340.982C652.359 340.766 652.764 340.624 653.008 340.312C653.02 340.296 652.979 339.417 652.975 339.375C652.873 338.119 652.828 337.328 653.112 336.061L653.202 335.682L654.747 335.251L655.5 335.159C659.316 330.878 664.123 327.526 668.517 323.861Z"/>
	<path fill="#FFE1E0" transform="scale(0.666667 0.666667)" d="M654.747 335.251L655.5 335.159C659.316 330.878 664.123 327.526 668.517 323.861L668.816 423.32L656.198 423.334L656.29 374.82L656.487 351.74C656.532 346.482 656.726 341.045 656.174 335.812L654.747 335.251Z"/>
	<path fill="#FF94A2" transform="scale(0.666667 0.666667)" d="M654.747 335.251L656.174 335.812C656.726 341.045 656.532 346.482 656.487 351.74L656.29 374.82L656.198 423.334L639.78 423.369L628.395 423.442L628.205 372.271L628.267 361.494C628.313 359.366 628.647 356.937 628.148 354.872L628.149 354.838C631.907 351.926 635.594 349.899 639.876 347.841C641.583 346.534 643.33 345.481 645.315 344.653C647.348 343.804 649.475 343.383 650.982 341.686L651.032 341.462C651.686 341.197 651.548 341.296 652.028 340.982C652.359 340.766 652.764 340.624 653.008 340.312C653.02 340.296 652.979 339.417 652.975 339.375C652.873 338.119 652.828 337.328 653.112 336.061L653.202 335.682L654.747 335.251Z"/>
	<path fill="#FFE1E0" transform="scale(0.666667 0.666667)" d="M628.148 354.872L628.149 354.838C631.907 351.926 635.594 349.899 639.876 347.841L639.78 423.369L628.395 423.442L628.205 372.271L628.267 361.494C628.313 359.366 628.647 356.937 628.148 354.872Z"/>
	<defs>
		<linearGradient id="gradient_1" gradientUnits="userSpaceOnUse" x1="113.38094" y1="346.96466" x2="210.73314" y2="154.65793">
			<stop offset="0" stop-color="#FA8596"/>
			<stop offset="1" stop-color="#FFAFB6"/>
		</linearGradient>
	</defs>
	<path fill="url(#gradient_1)" transform="scale(0.666667 0.666667)" d="M112.127 347.196C108.173 345.465 104.423 343.003 100.875 340.564C86.7898 330.877 74.4458 316.587 66.7582 301.364C61.6355 291.219 58.9481 280.989 57.3909 269.755C54.8786 251.631 56.013 233.746 61.7798 216.308C70.8756 188.803 91.4139 166.128 117.184 153.196C142.141 140.672 169.91 139.052 196.293 147.889C222.184 156.56 246.367 175.283 258.55 200.039C269.16 221.599 271.335 247.779 267.644 271.305C267.021 275.275 266.64 279.321 265.348 283.142L264.966 282.987C260.698 281.093 255.178 280.653 250.596 279.455L250.671 279.102C252.097 272.588 254.048 266.656 254.798 259.945C256.949 240.687 251.751 218.326 241.333 201.975C227.625 180.462 205.233 164.947 180.351 159.446C158.358 154.584 136.215 159.04 117.334 171.207C95.237 185.447 78.8752 207.558 73.2662 233.462C71.1378 243.292 70.2971 254.796 71.4511 264.849C72.1516 270.952 73.7609 277.118 75.5215 282.989C77.6649 290.136 80.4982 297.308 84.5843 303.579C92.8868 316.32 104.478 325.903 117.015 334.226C116.782 334.384 116.489 334.478 116.318 334.701C115.404 335.892 115.094 338.604 114.611 340.125C113.863 342.481 112.628 344.782 112.127 347.196Z"/>
	<path fill="#FFE5E5" transform="scale(0.666667 0.666667)" d="M420.016 356.272L420.375 355.447L435.187 355.888L446.959 356.135L462.038 356.82L472.57 358.393L474.304 358.881L474.342 358.963C478.716 360.228 485.253 361.117 488.969 363.656C491.815 364.68 494.329 366.212 497.033 367.538C498.416 368.216 500.333 368.679 501.059 370.125C501.73 371.46 501.979 373.028 502.264 374.481L503.17 374.792L516.309 376.604C516.8 377.424 516.861 378.131 516.997 379.061L517.227 423.331L502.194 423.302L489.25 423.285L474.515 423.219L397.762 423.318L396.102 423.409L394.5 423.067C393.657 421.583 394.429 376.455 394.418 371.572C398.897 369.858 403.117 367.929 407.241 365.474L407.411 365.123C408.635 363.179 411.152 361.707 412.869 360.155C414.178 359.462 415.519 358.569 416.868 357.987C418.143 357.438 419.026 357.315 420.016 356.272Z"/>
	<path fill="#FF94A2" transform="scale(0.666667 0.666667)" d="M407.241 365.474L407.93 366.197L407.625 423.158C404.485 423.171 400.835 422.806 397.762 423.318L396.102 423.409L394.5 423.067C393.657 421.583 394.429 376.455 394.418 371.572C398.897 369.858 403.117 367.929 407.241 365.474Z"/>
	<path fill="#FF94A2" transform="scale(0.666667 0.666667)" d="M474.342 358.963C478.716 360.228 485.253 361.117 488.969 363.656L489.25 423.285L474.515 423.219L474.342 358.963Z"/>
	<path fill="#FF94A2" transform="scale(0.666667 0.666667)" d="M446.959 356.135L462.038 356.82L462.127 423.187L446.996 423.13L446.959 356.135Z"/>
	<path fill="#FF94A2" transform="scale(0.666667 0.666667)" d="M420.016 356.272L420.375 355.447L435.187 355.888L434.741 423.065L419.825 423.072L420.016 356.272Z"/>
	<path fill="#FFE1E0" transform="scale(0.666667 0.666667)" d="M488.969 363.656C491.815 364.68 494.329 366.212 497.033 367.538C498.416 368.216 500.333 368.679 501.059 370.125C501.73 371.46 501.979 373.028 502.264 374.481L503.17 374.792L516.309 376.604C516.8 377.424 516.861 378.131 516.997 379.061L517.227 423.331L502.194 423.302L489.25 423.285L488.969 363.656Z"/>
	<path fill="#FF94A2" transform="scale(0.666667 0.666667)" d="M503.17 374.792L516.309 376.604C516.8 377.424 516.861 378.131 516.997 379.061L517.227 423.331L502.194 423.302L502.312 375.393L503.17 374.792Z"/>
	<path fill="#1BA1B9" transform="scale(0.666667 0.666667)" d="M397.355 561.471L344.091 561.422L326.062 561.4C323.763 561.406 319.76 561.965 317.765 560.925C315.575 559.783 313.396 558.449 311.546 556.804C309.633 555.103 308.135 553.089 307.631 550.529C307.168 548.173 307.496 545.168 307.509 542.758L307.534 527.051L307.575 483.314L307.201 453.938C307.029 450.985 307.917 449.101 309.973 446.905C313.087 443.58 317.144 443.626 321.348 443.577L321.096 547.632L498.082 548.032L498.304 548.266L688.171 547.543L687.875 463.067L687.855 448.649C687.857 447.752 687.599 445.494 687.87 444.75C688.019 444.343 688.358 444.035 688.601 443.677C692.988 443.669 695.965 444.376 699.255 447.562C700.436 448.707 701.429 450.123 702.309 451.507L701.832 480.429L701.667 526.666L701.644 543.738C701.639 546.243 701.988 549.357 701.462 551.802C700.928 554.281 698.967 556.407 697.125 558.05C695.776 559.254 694.067 560.529 692.256 560.901C689.913 561.383 687.002 561.191 684.605 561.231L668.91 561.334L627.715 561.517L603.136 561.842C599.329 562.303 595.305 562.081 591.463 562.102L571.488 562.162L534.921 562.126L523.115 562.072C520.603 562.05 517.989 562.184 515.562 561.483L515.05 560.963C510.842 560.182 479.859 560.134 477.13 561.501C474.425 562.238 470.639 561.891 467.811 561.911L448.525 561.886L397.355 561.471Z"/>
	<path fill="#FFA7B1" transform="scale(0.666667 0.666667)" d="M477.13 561.501C479.859 560.134 510.842 560.182 515.05 560.963L515.562 561.483C517.989 562.184 520.603 562.05 523.115 562.072L534.921 562.126L571.488 562.162L591.463 562.102C595.305 562.081 599.329 562.303 603.136 561.842C606.472 566.541 610.522 571.383 609.763 577.5C609.714 577.892 609.571 578.202 609.471 578.575C608.989 580.392 609.221 583.013 609.19 584.91L609.234 603.348L346.74 603.76C350.891 602.572 357.067 603.348 361.43 603.348L390.071 603.379L389.988 584.975C389.98 580.909 389.419 575.839 390.54 571.931L390.731 571.312C391.995 566.98 394.093 564.448 397.355 561.471L448.525 561.886L467.811 561.911C470.639 561.891 474.425 562.238 477.13 561.501Z"/>
	<path fill="#044F7C" transform="scale(0.666667 0.666667)" d="M477.13 561.501C479.859 560.134 510.842 560.182 515.05 560.963L515.562 561.483L515.545 571.448C512.294 572.227 507.588 571.625 504.193 571.624L477.204 571.624L477.13 561.501Z"/>
	<path fill="#E5F6F6" transform="scale(0.666667 0.666667)" d="M576.784 335.252L633.858 336.223C634.111 331.783 633.455 326.595 634.273 322.276L634.391 321.695L634.316 329.625L634.777 329.687L634.879 321.754L653.25 322.125L653.25 334.691L640.312 334.691C639.514 335.69 639.804 336.203 639.191 337.125L639.414 337.625C639.651 338.198 639.752 338.647 639.837 339.253C640.29 339.754 640.63 340.1 641.358 340.145L642.471 339.99C643.554 339.835 644.647 339.993 645.731 340.034C646.26 340.054 646.632 339.801 647.083 339.564C647.801 339.614 648.092 339.672 648.658 340.125L648.782 340.433C649.072 341.138 649.257 341.696 649.875 342.184L650.982 341.686C649.475 343.383 647.348 343.804 645.315 344.653C643.33 345.481 641.583 346.534 639.876 347.841C635.594 349.899 631.907 351.926 628.149 354.838L628.148 354.872C628.647 356.937 628.313 359.366 628.267 361.494L628.205 372.271L628.395 423.442L612.784 423.356L600.091 423.407L585.117 423.374L571.623 423.446C567.204 423.468 562.373 423.891 558 423.476C554.239 423.119 549.057 422.675 545.343 423.235C542.309 423.693 538.773 423.338 535.68 423.324L517.227 423.331L516.997 379.061C516.861 378.131 516.8 377.424 516.309 376.604L503.17 374.792L502.264 374.481C501.979 373.028 501.73 371.46 501.059 370.125C500.333 368.679 498.416 368.216 497.033 367.538C494.329 366.212 491.815 364.68 488.969 363.656C485.253 361.117 478.716 360.228 474.342 358.963L474.304 358.881L472.57 358.393C473.184 357.006 472.958 355.509 472.897 354.026C473.411 354.123 473.303 354.187 473.833 353.852C475.03 353.095 475.576 352.806 477 352.604C479.806 352.207 482.89 352.439 485.724 352.437C487.042 352.436 488.574 352.104 489.624 352.923L489.837 356.528L577.194 357.228L577.032 338.185C577.067 337.262 576.867 336.181 576.784 335.252Z"/>
	<path fill="#32B2C8" transform="scale(0.666667 0.666667)" d="M585.883 353.438C587.129 353.501 589.367 353.354 590.409 354.036C591.009 354.428 590.877 354.651 591.008 355.312L590.078 355.864C588.756 356.542 587.591 357.157 586.125 357.443L585.469 357C585.427 355.729 585.284 354.607 585.883 353.438Z"/>
	<path fill="#FFE1E0" transform="scale(0.666667 0.666667)" d="M573.019 381.511C575.538 380.707 577.502 378.555 579.413 376.82C581.445 374.975 583.667 373.241 585.95 371.716L585.784 373.387C585.147 373.618 584.612 373.625 584.25 374.213C582.729 376.683 578.382 381.424 575.407 381.94C574.66 382.07 574.173 381.949 573.482 381.67L573.019 381.511Z"/>
	<path fill="#32B2C8" transform="scale(0.666667 0.666667)" d="M594.883 353.438L595.685 353.292L596.812 354.473C597.563 354.007 597.659 354.093 598.5 354.07C599.333 354.987 599.291 355.003 599.351 356.25C598.773 357.033 598.964 357.1 597.938 357.28C597.692 356.502 597.552 356.181 596.907 355.67L596.074 356.438C595.877 357.115 595.579 357.766 595.312 358.419C594.142 358.499 593.729 358.506 592.688 357.855C592.226 356.994 591.818 356.246 591.763 355.25C591.713 354.347 591.762 354.538 592.313 353.943L593.812 354.349L594.883 353.438Z"/>
	<path fill="white" transform="scale(0.666667 0.666667)" d="M612.878 337.688L628.096 337.829C629.584 337.857 632.002 337.587 633.28 338.263L633.349 339.75C633.123 343.755 630.897 346.585 628.143 349.236C623.044 353.041 618.178 353.39 612.048 353.988L612.039 338.262L612.878 337.688Z"/>
	<path fill="#FFE1E0" transform="scale(0.666667 0.666667)" d="M516.997 379.061C520.315 380.459 523.473 383.127 526.762 384.266C528.851 384.989 531.904 384.134 534.201 384.663L544.47 384.351C547.933 383.095 553.163 383.049 556.887 382.729L572.595 381.581L572.627 413.77C572.628 415.606 573.143 421.814 572.18 422.987L571.624 423.162L571.623 423.446C567.204 423.468 562.373 423.891 558 423.476C554.239 423.119 549.057 422.675 545.343 423.235C542.309 423.693 538.773 423.338 535.68 423.324L517.227 423.331L516.997 379.061Z"/>
	<path fill="#FF94A2" transform="scale(0.666667 0.666667)" d="M544.47 384.351L544.507 422.996L528.855 423.031L528.772 384.674L534.201 384.663L544.47 384.351Z"/>
	<path fill="#FF94A2" transform="scale(0.666667 0.666667)" d="M572.595 381.581L572.627 413.77C572.628 415.606 573.143 421.814 572.18 422.987L571.624 423.162L556.945 423.127L556.887 382.729L572.595 381.581Z"/>
	<path fill="#FF94A2" transform="scale(0.666667 0.666667)" d="M628.148 354.872C628.647 356.937 628.313 359.366 628.267 361.494L628.205 372.271L628.395 423.442L612.784 423.356L600.091 423.407L585.117 423.374L571.623 423.446L571.624 423.162L572.18 422.987C573.143 421.814 572.628 415.606 572.627 413.77L572.595 381.581L573.019 381.511L573.482 381.67C574.173 381.949 574.66 382.07 575.407 381.94C578.382 381.424 582.729 376.683 584.25 374.213C584.612 373.625 585.147 373.618 585.784 373.387L585.95 371.716L586.697 367.611C590.974 367.828 594.99 368.202 599.086 366.672L599.658 366.454C603.639 364.512 608.229 363.554 612.4 362.013C617.758 360.628 623.209 357.349 628.148 354.872Z"/>
	<path fill="#FFE1E0" transform="scale(0.666667 0.666667)" d="M599.658 366.454C603.639 364.512 608.229 363.554 612.4 362.013L612.784 423.356L600.091 423.407L600.034 384.054L600.085 371.936C600.09 370.321 600.432 367.873 599.658 366.454Z"/>
	<path fill="#FF94A2" transform="scale(0.666667 0.666667)" d="M599.658 366.454C600.432 367.873 600.09 370.321 600.085 371.936L600.034 384.054L600.091 423.407L585.117 423.374L571.623 423.446L571.624 423.162L572.18 422.987C573.143 421.814 572.628 415.606 572.627 413.77L572.595 381.581L573.019 381.511L573.482 381.67C574.173 381.949 574.66 382.07 575.407 381.94C578.382 381.424 582.729 376.683 584.25 374.213C584.612 373.625 585.147 373.618 585.784 373.387L585.95 371.716L586.697 367.611C590.974 367.828 594.99 368.202 599.086 366.672L599.658 366.454Z"/>
	<path fill="#FFE5E5" transform="scale(0.666667 0.666667)" d="M573.019 381.511L573.482 381.67C574.173 381.949 574.66 382.07 575.407 381.94C578.382 381.424 582.729 376.683 584.25 374.213C584.612 373.625 585.147 373.618 585.784 373.387L585.117 423.374L571.623 423.446L571.624 423.162L572.18 422.987C573.143 421.814 572.628 415.606 572.627 413.77L572.595 381.581L573.019 381.511Z"/>
	<defs>
		<linearGradient id="gradient_2" gradientUnits="userSpaceOnUse" x1="188.72142" y1="576.38239" x2="156.4799" y2="393.15857">
			<stop offset="0" stop-color="#108AA7"/>
			<stop offset="1" stop-color="#2FB2C9"/>
		</linearGradient>
	</defs>
	<path fill="url(#gradient_2)" transform="scale(0.666667 0.666667)" d="M65.8402 525.637C64.633 522.322 64.3428 518.284 64.0059 514.763C62.1092 494.943 65.8737 473.522 74.3205 455.525C86.4543 429.673 108.634 407.757 135.724 398.008C165.281 387.371 196.78 390.306 224.986 403.599C250.786 415.759 272.553 437.89 282.233 464.872C285.391 473.672 286.99 482.971 287.819 492.256C289.664 512.909 287.178 534.159 278.13 552.968C277.916 553.413 277.673 553.795 277.373 554.186L277.211 553.332L276.656 554.439L275.625 556.5L275.062 557.25C274.804 557.789 274.907 557.981 274.512 558.574L273.375 560.25L273.002 560.719L273 561.188L272.066 561.938C271.744 561.461 271.329 560.886 271.149 560.33L271.01 559.662C270.246 559.238 269.48 558.872 268.87 558.236C268.158 557.493 267.325 557.26 266.664 556.406L266.224 555.821L265.001 555.937C264.72 553.455 266.309 551.33 267.375 549.117C268.178 547.448 268.84 545.716 269.521 543.995L269.137 543.111C271.66 535.554 273.713 528.326 274.643 520.385C277.721 494.084 272.066 467.735 255.436 446.686C244.407 432.726 229.174 421.026 212.575 414.55C202.521 410.628 191.889 408.473 181.2 407.236L177.375 407.222C176.558 408.51 176.998 412.225 176.997 413.884L177.009 431.037C177.008 432.674 177.411 435.464 176.564 436.883L175.371 437.25C157.855 437.107 140.743 447.125 128.565 459.074C119.324 468.141 112.234 481.125 109.588 493.805C109.015 496.555 108.402 499.363 108.36 502.183C108.347 503.055 108.31 504.017 108.455 504.872C108.171 505.293 107.978 505.792 107.603 506.134C107.079 506.61 102.956 507.351 101.956 507.631L82.9442 513.229L82.5352 513.439C80.2255 514.124 77.8722 514.703 75.7892 515.946L75.9959 520.958L75.375 521.25C75.4316 522.056 75.5432 522.543 75.75 523.312L75.791 523.72C75.9016 524.762 75.7154 523.299 76.125 524.812C76.372 525.725 75.959 526.242 76.4081 527.25C76.7465 528.009 76.8478 528.728 76.9321 529.548C77.0169 530.373 76.9398 529.941 77.25 530.812L78.5625 535.875C78.6956 536.496 78.9519 536.969 79.125 537.562L79.1448 537.935C79.2605 539.024 80.0625 539.694 80.0625 540.941C79.2126 541.439 79.1346 541.701 78.1219 541.561C76.935 542.228 74.8322 542.281 73.4723 541.896L72.6035 541.52L71.7305 542.436L71.0105 542.229C70.3605 540.979 70.1095 539.757 69.5262 538.491C69.3369 538.081 69.3144 537.765 69.2634 537.323C69.0327 535.329 68.1273 533.138 67.7386 531.073L67.3382 530.025C67.0795 529.36 67.0275 528.716 66.9199 528.018C66.8031 527.26 66.5913 526.66 66.3724 525.938L66.1602 525.042L65.8402 525.637Z"/>
	<path fill="#32B2C8" transform="scale(0.666667 0.666667)" d="M75.7892 515.946C76.1297 505.556 76.5779 495.54 79.2802 485.438C81.6611 476.536 84.7056 467.41 89.0398 459.261C97.8105 442.771 112.192 429.325 128.3 420.115C141.749 412.424 158.418 406.949 174.014 406.824C176.39 406.805 178.888 406.612 181.2 407.236L177.375 407.222C176.558 408.51 176.998 412.225 176.997 413.884L177.009 431.037C177.008 432.674 177.411 435.464 176.564 436.883L175.371 437.25C157.855 437.107 140.743 447.125 128.565 459.074C119.324 468.141 112.234 481.125 109.588 493.805C109.015 496.555 108.402 499.363 108.36 502.183C108.347 503.055 108.31 504.017 108.455 504.872C108.171 505.293 107.978 505.792 107.603 506.134C107.079 506.61 102.956 507.351 101.956 507.631L82.9442 513.229L82.5352 513.439C80.2255 514.124 77.8722 514.703 75.7892 515.946Z"/>
	<path fill="#57C4DD" transform="scale(0.666667 0.666667)" d="M75.7892 515.946C76.1297 505.556 76.5779 495.54 79.2802 485.438C81.6611 476.536 84.7056 467.41 89.0398 459.261C97.8105 442.771 112.192 429.325 128.3 420.115C141.749 412.424 158.418 406.949 174.014 406.824C176.39 406.805 178.888 406.612 181.2 407.236L177.375 407.222C176.558 408.51 176.998 412.225 176.997 413.884L177.009 431.037C177.008 432.674 177.411 435.464 176.564 436.883L176.685 413.991C172.162 414.128 167.645 414.164 163.155 414.773C141.651 417.691 122.323 427.872 107.471 443.634C91.1815 460.924 81.7074 487.899 82.4978 511.599C82.5253 512.423 82.4749 512.486 82.9442 513.229L82.5352 513.439C80.2255 514.124 77.8722 514.703 75.7892 515.946Z"/>
	<path fill="#C4EFEE" transform="scale(0.666667 0.666667)" d="M176.997 413.884C176.998 412.225 176.558 408.51 177.375 407.222L181.2 407.236C191.889 408.473 202.521 410.628 212.575 414.55C229.174 421.026 244.407 432.726 255.436 446.686C272.066 467.735 277.721 494.084 274.643 520.385C273.713 528.326 271.66 535.554 269.137 543.111C266.18 550.348 262.509 557.15 257.988 563.533C243.878 583.452 221.839 597.902 197.649 601.972C170.24 606.583 139.652 602.642 116.615 586.209C101.665 575.546 88.5447 560.2 81.7587 543.089C78.9306 535.959 77.2484 528.507 75.9959 520.958L75.7892 515.946C77.8722 514.703 80.2255 514.124 82.5352 513.439L82.9442 513.229L101.956 507.631C102.956 507.351 107.079 506.61 107.603 506.134C107.978 505.792 108.171 505.293 108.455 504.872C106.578 514.406 110.829 527.024 115.041 535.563C122.373 550.428 137.094 562.528 152.706 567.795C170.226 573.706 190.131 573.207 206.877 564.852C223.265 556.676 235.991 542.692 241.688 525.225C246.785 509.595 246.568 491.318 238.841 476.468C236.009 471.025 232.48 465.968 228.332 461.436C214.369 446.18 195.954 438.171 175.371 437.25L176.564 436.883C177.411 435.464 177.008 432.674 177.009 431.037L176.997 413.884Z"/>
	<path fill="white" transform="scale(0.666667 0.666667)" d="M176.997 413.884C176.998 412.225 176.558 408.51 177.375 407.222L181.2 407.236C191.889 408.473 202.521 410.628 212.575 414.55C229.174 421.026 244.407 432.726 255.436 446.686C272.066 467.735 277.721 494.084 274.643 520.385C273.713 528.326 271.66 535.554 269.137 543.111C266.18 550.348 262.509 557.15 257.988 563.533C243.878 583.452 221.839 597.902 197.649 601.972C170.24 606.583 139.652 602.642 116.615 586.209C101.665 575.546 88.5447 560.2 81.7587 543.089C78.9306 535.959 77.2484 528.507 75.9959 520.958L75.7892 515.946C77.8722 514.703 80.2255 514.124 82.5352 513.439C83.8054 515.996 83.6732 520.522 84.3634 523.5C87.2022 535.749 91.9257 548.411 99.7996 558.36C116.211 579.096 139.683 592.179 165.949 595.186C191.595 598.121 217.024 590.424 237.095 574.245C255.639 559.297 265.546 537.458 268.095 514.13C270.689 490.392 261.469 466.265 246.623 448.107C229.77 427.495 202.873 416.646 176.997 413.884Z"/>
	<path fill="white" transform="scale(0.666667 0.666667)" d="M108.455 504.872C108.31 504.017 108.347 503.055 108.36 502.183C108.402 499.363 109.015 496.555 109.588 493.805C112.234 481.125 119.324 468.141 128.565 459.074C140.743 447.125 157.855 437.107 175.371 437.25C195.954 438.171 214.369 446.18 228.332 461.436C232.48 465.968 236.009 471.025 238.841 476.468C246.568 491.318 246.785 509.595 241.688 525.225C235.991 542.692 223.265 556.676 206.877 564.852C190.131 573.207 170.226 573.706 152.706 567.795C137.094 562.528 122.373 550.428 115.041 535.563C110.829 527.024 106.578 514.406 108.455 504.872Z"/>
	<path fill="#32B2C8" transform="scale(0.666667 0.666667)" d="M177.081 444.481C195.554 446.24 212.775 454.577 224.754 468.972C234.27 480.407 239.431 495.366 237.908 510.279C236.295 526.066 228.898 540.153 216.465 550.096C205.247 559.068 192.676 563.528 178.338 564.069L178.501 520.446C180.197 519.866 181.833 519.098 183.375 518.184C188.524 515.132 192.618 510.247 194.017 504.362C195.271 499.088 194.055 493.644 191.072 489.155C187.834 484.281 182.744 481.499 177.094 480.425L177.081 444.481Z"/>
	<path fill="#FFA7B1" transform="scale(0.666667 0.666667)" d="M178.338 564.069C177.218 564.294 176.092 564.305 174.952 564.319C158.871 564.526 142.293 557.175 130.875 546.003C120.278 535.634 115.18 522.199 115.147 507.513C115.109 490.599 122.009 475.544 133.966 463.693C145.366 452.395 160.768 444.445 177.081 444.481L177.094 480.425C182.744 481.499 187.834 484.281 191.072 489.155C194.055 493.644 195.271 499.088 194.017 504.362C192.618 510.247 188.524 515.132 183.375 518.184C181.833 519.098 180.197 519.866 178.501 520.446L178.338 564.069Z"/>
	<path fill="white" transform="scale(0.666667 0.666667)" d="M177.094 480.425C182.744 481.499 187.834 484.281 191.072 489.155C194.055 493.644 195.271 499.088 194.017 504.362C192.618 510.247 188.524 515.132 183.375 518.184C181.833 519.098 180.197 519.866 178.501 520.446C175.948 520.666 172.925 520.743 170.438 520.121C165.129 518.793 160.748 515.813 157.997 511.021C155.249 506.236 154.213 499.491 155.757 494.155L155.959 493.5C156.726 490.929 157.823 488.816 159.643 486.851C164.405 481.708 170.459 480.732 177.094 480.425Z"/>
	<path fill="#32B2C8" transform="scale(0.666667 0.666667)" d="M512.267 443.529L688.601 443.677C688.358 444.035 688.019 444.343 687.87 444.75C687.599 445.494 687.857 447.752 687.855 448.649L687.875 463.067L688.171 547.543L498.304 548.266L498.082 548.032L511.922 547.969L512.267 443.529Z"/>
	<path fill="white" transform="scale(0.666667 0.666667)" d="M522.892 467.438C525.853 466.986 529.358 467.308 532.376 467.298L554.474 467.3L630.264 467.375C634.726 467.374 667.376 466.669 669.188 467.659L669.188 468.715L668.719 468.991C666.602 469.649 662.68 469.167 660.357 469.178L637.193 469.237L527.719 469.084C526.208 469.058 524.166 469.264 522.815 468.519L522.892 467.438Z"/>
	<defs>
		<linearGradient id="gradient_3" gradientUnits="userSpaceOnUse" x1="595.20935" y1="529.10486" x2="595.04102" y2="534.38318">
			<stop offset="0" stop-color="#D6F6F6"/>
			<stop offset="1" stop-color="#F4F8F9"/>
		</linearGradient>
	</defs>
	<path fill="url(#gradient_3)" transform="scale(0.666667 0.666667)" d="M605.769 530.81L652.581 530.741L663.169 530.797C664.588 530.818 666.697 530.59 667.98 531.188L668.172 532.125L667.72 532.688L585.656 532.911L543.38 533.176C536.959 533.187 530.018 533.734 523.688 532.981C523.391 532.025 523.346 531.988 523.688 531.057L605.769 530.81Z"/>
	<path fill="#E5F6F6" transform="scale(0.666667 0.666667)" d="M523.973 483.562L668.99 483.467L669.324 484.125L668.812 485.03L667.688 485.201L522.938 485.728C522.302 484.911 522.443 484.864 522.562 483.816L523.973 483.562Z"/>
	<path fill="#E5F6F6" transform="scale(0.666667 0.666667)" d="M523.273 515.062C529.537 514.548 536.03 514.86 542.322 514.856L575.898 514.85L645.576 514.77L662.001 514.781C663.879 514.785 667.081 514.374 668.747 515.154L668.886 516.188L668.062 516.763L549.599 517.082L529.904 516.89C527.875 516.862 524.404 517.247 522.562 516.475L522.431 515.637L523.273 515.062Z"/>
	<path fill="#E5F6F6" transform="scale(0.666667 0.666667)" d="M523.115 498.938L668.438 498.869L668.938 499.688L668.608 500.812C665.001 501.505 660.505 501.014 656.812 501.028L631.267 501.165L528.305 501.319C526.69 501.303 524.362 501.575 522.938 500.87C522.728 499.989 522.828 499.812 523.115 498.938Z"/>
	<path fill="#FFA7B1" transform="scale(0.666667 0.666667)" d="M321.348 443.577L457.874 443.262L495.748 443.308C500.96 443.327 507.188 442.694 512.267 443.529L511.922 547.969L498.082 548.032L321.096 547.632L321.348 443.577Z"/>
	<path fill="#FFE5E5" transform="scale(0.666667 0.666667)" d="M332.185 477.562C333.408 477.164 334.999 477.349 336.289 477.351L344.331 477.366L381.11 477.62L410.666 477.678C416.068 477.689 421.553 477.483 426.938 477.85C427.364 478.73 427.129 479.416 426.938 480.323C421.228 480.993 414.742 480.497 408.957 480.515L369.551 480.437L344.95 480.322C340.917 480.301 336.388 480.683 332.438 480.052C332.121 479.139 332.145 478.51 332.185 477.562Z"/>
	<path fill="white" transform="scale(0.666667 0.666667)" d="M331.736 522.562C335.899 521.712 341.453 522.352 345.752 522.352L377.234 522.378L497.18 522.387C498.159 522.391 499.19 522.228 500.062 522.739C500.254 523.945 500.356 523.938 499.688 524.939L331.924 524.881C331.333 523.977 331.6 523.586 331.736 522.562Z"/>
	<path fill="white" transform="scale(0.666667 0.666667)" d="M331.786 532.688C334.974 531.824 340.314 532.481 343.728 532.481L374.119 532.511L498.562 532.519C499.454 533.28 499.29 533.801 499.43 534.938L498.562 535.357L375.188 535.243L344.283 535.306C340.539 535.301 335.276 535.927 331.688 535.038C331.433 534.161 331.611 533.561 331.786 532.688Z"/>
	<path fill="#FFE5E5" transform="scale(0.666667 0.666667)" d="M332.081 507.562C335.677 507.081 339.872 507.505 343.526 507.503L369.838 507.549L451.341 507.807L486.619 508.162L496.81 508.212C497.869 508.218 499.148 508.004 500.062 508.615C500.207 509.82 500.071 510.435 499.688 511.588C496.214 512.094 492.325 511.794 488.802 511.804L466.865 511.84L363.754 511.453L342.247 511.375C339.262 511.37 334.571 511.999 331.869 510.938C331.786 509.715 331.81 508.76 332.081 507.562Z"/>
	<path fill="#FFE5E5" transform="scale(0.666667 0.666667)" d="M421.021 490.31C429.056 490.273 498.303 490.034 499.312 490.547C499.541 490.663 499.692 490.891 499.881 491.062C499.866 492.274 500.153 493.737 499.312 494.623L411.844 494.925L344.963 495.19L335.165 495.131C334.705 495.124 332.787 495.271 332.438 495.082C332.23 494.971 332.08 494.777 331.901 494.625C331.886 493.328 331.534 491.784 332.438 490.835L421.021 490.31Z"/>
	<path fill="white" transform="scale(0.666667 0.666667)" d="M117.015 334.226C104.478 325.903 92.8868 316.32 84.5843 303.579C80.4982 297.308 77.6649 290.136 75.5215 282.989C73.7609 277.118 72.1516 270.952 71.4511 264.849C70.2971 254.796 71.1378 243.292 73.2662 233.462C78.8752 207.558 95.237 185.447 117.334 171.207C136.215 159.04 158.358 154.584 180.351 159.446C205.233 164.947 227.625 180.462 241.333 201.975C251.751 218.326 256.949 240.687 254.798 259.945C254.048 266.656 252.097 272.588 250.671 279.102L250.596 279.455C244.302 301.86 229.451 320.707 209.25 332.18C187.016 344.807 161.395 348.651 136.672 341.745C130.006 339.883 123.067 337.604 117.015 334.226Z"/>
	<path fill="#C4EFEE" transform="scale(0.666667 0.666667)" d="M177.303 166.979C183.942 168.625 190.612 170.505 196.899 173.235C212.35 179.947 227.27 192.212 236.02 206.742C244.222 220.363 248.617 236.92 247.889 252.83C247.566 259.899 246.037 267.008 244.312 273.852L243.672 276.256L222.296 270.523C222.405 269.821 222.308 270.099 222.632 269.448C223.356 267.995 224.028 266.621 224.497 265.056C228.995 250.066 226.888 235.805 219.421 222.17C213.662 211.654 206.345 202.747 195.983 196.477C190.09 192.911 183.486 190.538 176.907 188.614C177.349 183.589 177.087 178.489 177.012 173.451C176.984 171.592 176.591 168.643 177.303 166.979Z"/>
	<path fill="#E5F6F6" transform="scale(0.666667 0.666667)" d="M109.493 247.547L86.9269 247.524C84.589 247.543 81.2829 248.139 79.0687 247.655C80.521 239.263 81.9686 230.633 85.025 222.648C94.8988 196.855 118.275 172.75 146.44 168.107C151.04 167.348 155.727 166.948 160.383 166.706C162.16 166.614 165.278 166.982 166.875 166.529C167.093 166.467 167.71 165.828 167.868 165.68L168.188 165.376L177.303 166.979C176.591 168.643 176.984 171.592 177.012 173.451C177.087 178.489 177.349 183.589 176.907 188.614C183.486 190.538 190.09 192.911 195.983 196.477C206.345 202.747 213.662 211.654 219.421 222.17C226.888 235.805 228.995 250.066 224.497 265.056C224.028 266.621 223.356 267.995 222.632 269.448C222.308 270.099 222.405 269.821 222.296 270.523C220.448 269.905 218.447 268.883 216.853 267.774L219.426 256.302C221.365 243.375 217.588 229.042 209.763 218.593C200.329 205.996 185.653 196.98 169.952 194.812C156.192 192.911 142.747 197.456 131.909 205.843C118.234 216.427 111.569 230.707 109.493 247.547Z"/>
	<path fill="#FFA7B1" transform="scale(0.666667 0.666667)" d="M109.493 247.547C111.569 230.707 118.234 216.427 131.909 205.843C142.747 197.456 156.192 192.911 169.952 194.812C185.653 196.98 200.329 205.996 209.763 218.593C217.588 229.042 221.365 243.375 219.426 256.302L216.853 267.774C213.165 280.05 203.842 291.285 192.698 297.53C184.443 302.156 175.362 305.218 165.814 305.301C150.703 305.431 135.47 298.06 124.892 287.524C116.792 279.456 111.235 269.745 109.74 258.307C109.283 254.814 109.494 251.072 109.493 247.547Z"/>
	<path fill="white" transform="scale(0.666667 0.666667)" d="M164.864 231.501C169.838 231.049 174.476 232.102 178.726 234.724C183.537 237.693 186.64 242.515 187.814 247.98C189.088 253.907 187.671 260.607 184.257 265.598C180.778 270.686 175.931 273.734 169.981 274.926C164.636 274.989 160.301 274.519 155.738 271.462C150.58 268.006 146.763 262.094 145.697 256.007C144.724 250.45 146.014 244.001 149.438 239.505C153.194 234.572 158.876 232.249 164.864 231.501Z"/>
	<path fill="#57C4DD" transform="scale(0.666667 0.666667)" d="M311.475 171.818L339.205 171.678L392.402 171.672L543.877 171.848L649.15 171.77L682.08 171.878C687.251 171.903 692.738 171.563 697.875 172.022C700.058 172.216 702.098 173.47 703.832 174.739C707.037 177.083 708.716 180.117 709.253 184.056C709.756 187.747 709.32 192.037 709.283 195.773L709.219 216.817L709.27 239.072C709.311 242.955 709.791 247.4 709.254 251.238C709.049 252.698 708.1 254.258 707.166 255.361C704.668 258.311 702.041 259.161 698.329 259.382L438.365 259.265L353.682 259.379L310.906 259.343C308.917 259.266 306.89 259.09 305.093 258.162C302.635 256.893 300.695 254.501 299.909 251.85C298.611 247.472 299.223 241.883 299.224 237.335L299.241 214.12L299.248 194.808C299.253 191.346 299.04 187.703 299.367 184.263C299.567 182.159 300.104 180.436 301.189 178.623C303.449 174.848 307.37 172.862 311.475 171.818Z"/>
	<path fill="#D2F1F2" transform="scale(0.666667 0.666667)" d="M344.699 177.938L620.537 178.108L676.909 178.202L691.295 178.2C692.934 178.201 695.538 177.882 697.064 178.321C697.427 178.426 698.142 179.02 698.45 179.243C699.834 180.244 702.149 182.575 702.301 184.348C702.436 185.921 702.136 187.708 702.067 189.292L701.964 197.017L701.951 231.04L701.953 245.316C701.949 246.461 702.253 248.753 701.935 249.794C701.786 250.282 700.702 251.445 700.33 251.812C699.953 252.184 698.868 253.157 698.368 253.314C696.118 254.02 691.737 253.472 689.271 253.476L663.844 253.497L417.881 253.535L344.544 253.499L321.938 253.492C318.504 253.495 314.839 253.796 311.438 253.437C310.301 253.317 309.349 252.768 308.473 252.062C306.964 250.846 306.174 249.663 306.085 247.688C305.723 239.74 306.325 231.489 306.338 223.5L306.337 193.015L306.361 185.927C306.369 185.066 306.194 183.783 306.391 182.996C306.599 182.169 307.815 180.91 308.408 180.333C309.463 179.308 310.743 178.518 312.191 178.185C315.15 177.504 319.31 177.941 322.374 177.937L344.699 177.938Z"/>
	<path fill="#C4EFEE" transform="scale(0.666667 0.666667)" d="M471.918 227.521L472.5 226.794L472.804 226.871C474.94 227.359 477.277 227.201 479.458 227.211L489.884 227.137C491.862 227.093 494.961 226.535 496.649 227.438C496.729 228.516 496.932 229.572 496.466 230.585C494.971 231.451 491.659 231.001 489.923 231.007L473.062 231.115L472.246 230.688L471.918 227.521Z"/>
	<path fill="#C4EFEE" transform="scale(0.666667 0.666667)" d="M442.499 200.715L442.846 200.869C443.705 201.138 444.617 200.905 445.5 200.87L450.727 200.863L497.712 200.324L497.818 205.033C496.468 205.429 494.79 205.234 493.389 205.237L485.062 205.264L455.284 205.526C451.668 205.525 447.257 206.02 443.751 205.337C443.108 205.212 442.965 205.385 442.379 205.541C439.867 206.21 435.736 205.601 433.057 205.557L432.847 205.237L442.125 205.202C442.844 204.321 442.497 201.908 442.499 200.715Z"/>
	<path fill="#32B2C8" transform="scale(0.666667 0.666667)" d="M401.881 230.91L333.717 230.687L333.838 226.171L401.714 226.508L401.881 230.91Z"/>
	<path fill="#FFA7B1" transform="scale(0.666667 0.666667)" d="M675.432 227.445L680.915 227.329L680.768 232.137L616.969 232.093C615.313 232.078 612.227 232.458 610.923 231.562L610.922 228.188C611.156 228.009 611.344 227.741 611.625 227.651C612.421 227.395 614.528 227.661 615.454 227.663L626.488 227.675L675.432 227.445Z"/>
	<path fill="#FFA7B1" transform="scale(0.666667 0.666667)" d="M401.714 226.508L456.415 226.474L467.165 226.292C468.077 226.262 470.218 225.914 471 226.144C471.307 226.234 471.527 226.506 471.791 226.688L471.918 227.521L472.246 230.688C470.673 231.578 468.23 231.257 466.413 231.281L452.476 231.331L419.546 231.244C413.68 231.192 407.733 231.318 401.881 230.91L401.714 226.508Z"/>
	<path fill="#32B2C8" transform="scale(0.666667 0.666667)" d="M636.642 202.691L679.526 202.424L679.5 207.66L654.938 207.724L612.387 207.709L612.545 202.851L636.642 202.691Z"/>
	<path fill="#32B2C8" transform="scale(0.666667 0.666667)" d="M442.499 200.715C442.497 201.908 442.844 204.321 442.125 205.202L432.847 205.237L334.658 204.974L334.773 201.002L442.499 200.715Z"/>
</svg>
