<?xml version="1.0" encoding="utf-8" ?>
<svg xmlns="http://www.w3.org/2000/svg" xmlns:xlink="http://www.w3.org/1999/xlink" width="512" height="512">
	<path fill="white" transform="scale(0.666667 0.666667)" d="M-0 -0L768 0L768 768L-0 768L0 -0Z"/>
	<path fill="#B14351" transform="scale(0.666667 0.666667)" d="M685.972 503.438C686.625 503.391 686.563 503.362 687.128 503.422C688.584 503.577 689.469 503.924 690.35 505.119C691.181 506.248 691.627 507.379 691.308 508.793C690.952 510.376 690.031 511.119 688.688 511.9L687.375 512.147C685.805 511.694 684.309 511.071 683.554 509.504C682.999 508.351 682.951 506.678 683.45 505.498C683.988 504.224 684.738 503.911 685.972 503.438Z"/>
	<path fill="#B14351" transform="scale(0.666667 0.666667)" d="M684.131 478.688L684.504 478.591C685.963 478.324 688.403 478.345 689.622 479.329C690.54 480.07 691.048 481.056 691.021 482.25C690.984 483.917 690.244 484.44 689.137 485.521L687.56 485.842C685.756 486.155 684.491 486.215 682.98 485.148C682.208 483.856 681.753 482.466 682.066 480.938C682.327 479.665 683.138 479.299 684.131 478.688Z"/>
	<path fill="#FFC5C9" transform="scale(0.666667 0.666667)" d="M108.753 501.562C110.638 501.505 111.829 501.601 113.245 502.992C114.023 503.756 114.533 504.947 114.382 506.062C114.133 507.903 112.582 508.867 111.188 509.842C110.596 510.136 109.857 510.472 109.193 510.243C107.859 509.783 106.138 508.549 105.704 507.135C105.421 506.214 105.592 504.547 106.02 503.695C106.699 502.346 107.412 502.027 108.753 501.562Z"/>
	<path fill="#B14351" transform="scale(0.666667 0.666667)" d="M711.801 454.547L713.905 454.584C715.295 454.752 716.424 455.427 717.227 456.581C717.772 457.364 717.84 458.178 717.654 459.087C717.298 460.835 716.052 461.662 714.621 462.537L713.062 462.715C711.911 462.741 710.49 462.514 709.677 461.638C708.403 460.266 708.686 458.639 708.817 456.938C709.695 455.686 710.444 455.227 711.801 454.547Z"/>
	<path fill="#53BCCF" transform="scale(0.666667 0.666667)" d="M684.219 454.688C685.281 454.34 686.229 454.316 687.344 454.432C688.852 454.59 689.55 455.218 690.441 456.375C690.684 457.336 690.749 457.985 690.54 458.97C690.168 460.733 689.421 461.43 687.938 462.358C687.126 462.616 686.417 462.643 685.576 462.574C684.337 462.473 683.214 462.064 682.426 461.062C681.534 459.93 681.685 458.668 681.786 457.312C682.474 456.057 683.042 455.493 684.219 454.688Z"/>
	<path fill="#B14351" transform="scale(0.666667 0.666667)" d="M109.325 475.954L112.688 476.33C113.433 476.848 114.221 477.372 114.665 478.189C115.231 479.233 115.401 480.976 114.922 482.083C114.347 483.41 113.223 484.025 111.938 484.487C111.04 484.532 109.948 484.656 109.078 484.391C107.96 484.051 106.92 483.37 106.446 482.253C105.91 480.989 106.068 479.191 106.688 477.982C107.399 476.594 107.947 476.411 109.325 475.954Z"/>
	<path fill="#53BCCF" transform="scale(0.666667 0.666667)" d="M631.576 478.688C632.497 478.429 633.258 478.345 634.221 478.407C635.544 478.493 636.53 478.846 637.296 479.989C638.245 481.403 638 483.108 637.77 484.688C637.039 485.87 636.694 486.231 635.438 486.825C634.892 486.974 634.304 487.049 633.74 487.081C632.345 487.162 631.29 486.758 630.32 485.798C629.037 484.527 629.223 483.001 629.267 481.312C629.886 479.985 630.354 479.483 631.576 478.688Z"/>
	<path fill="#53BCCF" transform="scale(0.666667 0.666667)" d="M633.228 501.938C633.821 501.897 634.492 501.851 635.062 502.062C636.206 502.485 637.167 503.791 637.482 504.926C637.901 506.431 637.9 508.461 637.011 509.812C636.24 510.987 635.18 511.106 633.938 511.424C633.307 511.401 632.733 511.38 632.134 511.161C630.999 510.747 630.168 510.022 629.699 508.898C629.127 507.528 629.266 505.938 629.901 504.605C630.6 503.137 631.752 502.438 633.228 501.938Z"/>
	<path fill="#FFD4D5" transform="scale(0.666667 0.666667)" d="M133.747 353.812C134.305 353.628 134.754 353.545 135.346 353.567C136.748 353.619 137.691 353.825 138.66 354.935C139.731 356.161 140.204 357.493 140.027 359.119C139.856 360.68 138.964 361.797 137.812 362.787C137.236 363.069 136.743 363.33 136.086 363.334C134.97 363.339 133.881 362.908 133.141 362.058C131.887 360.617 131.715 358.233 132.014 356.438C132.21 355.259 132.848 354.526 133.747 353.812Z"/>
	<path fill="#53BCCF" transform="scale(0.666667 0.666667)" d="M658.912 477.938L660.75 477.615C661.942 477.565 663.18 478.055 663.938 478.996C665.222 480.592 665.03 482.494 664.743 484.397C663.97 485.597 663.301 486.06 662.062 486.748C661.633 486.858 661.198 486.984 660.75 486.998C659.416 487.041 658.048 486.535 657.158 485.538C656.342 484.626 656.258 482.898 656.441 481.756C656.722 480.001 657.544 478.996 658.912 477.938Z"/>
	<path fill="#CD6170" transform="scale(0.666667 0.666667)" d="M132.058 475.688C133.253 475.434 134.13 475.409 135.346 475.549C136.092 475.635 136.814 476.376 137.244 476.977C138.137 478.226 138.485 479.45 138.215 480.971C137.901 482.742 136.986 483.329 135.57 484.245C134.6 484.378 133.068 484.717 132.134 484.412C131.368 484.162 130.421 483.191 130.051 482.494C129.365 481.204 129.126 479.115 129.701 477.75C130.195 476.577 130.988 476.216 132.058 475.688Z"/>
	<path fill="#53BCCF" transform="scale(0.666667 0.666667)" d="M659.033 454.312C659.897 454.169 660.939 454.018 661.793 454.249C662.814 454.525 663.685 455.261 664.187 456.188C664.905 457.516 665.104 459.629 664.582 461.055C664.065 462.467 663.052 462.817 661.783 463.312C660.991 463.397 660.136 463.507 659.355 463.308C658.116 462.993 656.878 462.015 656.274 460.887C655.751 459.909 655.618 458.326 655.976 457.276C656.478 455.801 657.69 454.938 659.033 454.312Z"/>
	<path fill="#CD6170" transform="scale(0.666667 0.666667)" d="M711.393 478.312C712.397 478.022 713.576 477.881 714.593 478.202C715.836 478.595 716.884 479.628 717.414 480.805C717.83 481.73 717.908 483.001 717.526 483.951C716.922 485.457 715.59 486.252 714.188 486.89C713.171 487.142 712.346 487.267 711.304 487.051C710.245 486.832 709.209 486.163 708.669 485.21C708.024 484.072 708.006 482.658 708.377 481.43C708.86 479.834 709.999 479.07 711.393 478.312Z"/>
	<path fill="#53BCCF" transform="scale(0.666667 0.666667)" d="M632.537 454.152L634.776 454.288C636.047 454.433 637.081 454.882 637.811 456.006C638.595 457.214 638.821 459.111 638.36 460.469C637.857 461.956 636.644 462.696 635.341 463.416L632.812 463.452C631.711 463.374 630.655 462.731 630.045 461.812C629.26 460.629 628.873 458.205 629.329 456.859C629.806 455.449 631.325 454.775 632.537 454.152Z"/>
	<path fill="#53BCCF" transform="scale(0.666667 0.666667)" d="M659.402 501.938L660.767 501.78C661.855 501.755 663.088 502.286 663.803 503.117C664.945 504.444 665.661 506.92 665.194 508.633C664.753 510.25 663.016 511.301 661.652 512.031C660.67 512.158 659.793 512.222 658.835 511.904C657.57 511.485 656.806 510.647 656.26 509.45C655.632 508.071 655.663 506.681 656.19 505.276C656.844 503.531 657.741 502.691 659.402 501.938Z"/>
	<path fill="#FFD4D5" transform="scale(0.666667 0.666667)" d="M132.812 500.438C133.907 500.242 135.221 500.158 136.315 500.359C137.515 500.58 138.62 501.122 139.308 502.159C140.098 503.351 140.061 505.206 139.724 506.571C139.323 508.198 138.322 509.382 136.889 510.188C135.718 510.327 134.426 510.485 133.312 509.988C131.957 509.382 130.492 508.071 130.013 506.64C129.575 505.333 129.636 503.549 130.257 502.312C130.818 501.196 131.7 500.836 132.812 500.438Z"/>
	<path fill="#FFD4D5" transform="scale(0.666667 0.666667)" d="M109.148 453.447C110.378 453.387 112.046 453.475 113.211 453.898C114.146 454.238 115.2 455.188 115.579 456.116C116.062 457.298 115.929 459.383 115.341 460.519C114.52 462.106 113.364 462.627 111.737 463.17C110.59 463.152 109.414 463.16 108.322 462.766C106.716 462.187 105.788 461.253 105.052 459.75C104.971 458.49 104.82 457.165 105.43 456.008C106.275 454.402 107.477 453.905 109.148 453.447Z"/>
	<path fill="#FFD4D5" transform="scale(0.666667 0.666667)" d="M130.831 453.938C131.883 453.722 132.983 453.672 134.056 453.743C135.884 453.864 137.116 454.861 138.264 456.188C138.564 457.246 138.806 458.214 138.576 459.316C138.187 461.184 136.823 462.092 135.307 463.057C133.935 463.448 131.974 463.798 130.607 463.278C129.597 462.893 128.458 461.641 128.054 460.661C127.536 459.405 127.533 457.387 128.117 456.152C128.69 454.941 129.645 454.416 130.831 453.938Z"/>
	<path fill="#FFD4D5" transform="scale(0.666667 0.666667)" d="M632.221 373.561C633.517 373.388 634.523 373.411 635.812 373.61C636.718 374.503 637.674 375.482 638.146 376.688C638.688 378.074 638.67 379.662 638.084 381.03C637.389 382.651 636.19 383.546 634.601 384.188C633.922 384.29 633.259 384.404 632.571 384.311C631.126 384.117 629.732 383.104 628.968 381.871C628.231 380.681 627.908 378.796 628.308 377.438C628.892 375.457 630.539 374.522 632.221 373.561Z"/>
	<path fill="#53BCCF" transform="scale(0.666667 0.666667)" d="M95.2765 226.145C96.1943 226.12 97.0505 226.127 97.9537 226.319C99.9034 226.733 101.684 228.154 102.724 229.842C103.672 231.382 103.608 233.642 103.096 235.312C102.333 237.804 100.449 239.239 98.3111 240.511C97.1554 240.665 95.8635 240.87 94.7493 240.436C93.022 239.762 91.4568 238.052 90.7375 236.368C89.9306 234.48 90.0946 231.427 90.9599 229.577C91.8393 227.697 93.4097 226.83 95.2765 226.145Z"/>
	<path fill="#FFC5C9" transform="scale(0.666667 0.666667)" d="M125.412 383.062L126.209 382.994C129.805 382.828 138.656 381.901 141.441 384.371C142.102 385.845 141.994 388.135 141.349 389.625C140.846 390.786 140.464 390.968 139.312 391.401C134.684 391.416 129.054 392.009 124.567 391.026C124.049 390.577 123.462 390.093 123.15 389.471C122.41 387.997 122.791 385.989 123.46 384.562C123.966 383.484 124.299 383.404 125.412 383.062Z"/>
	<path fill="#53BCCF" transform="scale(0.666667 0.666667)" d="M477.385 168.817C478.559 168.828 479.736 168.835 480.869 169.183C482.767 169.766 484.446 171.038 485.314 172.845C486.219 174.731 486.191 176.742 485.468 178.688C484.589 181.056 482.7 182.262 480.484 183.23L480.268 183.216C479.153 183.161 477.935 183.184 476.866 182.83C474.828 182.154 472.977 180.257 472.175 178.292C471.566 176.801 471.482 174.71 472.123 173.213C473.212 170.672 474.908 169.802 477.385 168.817Z"/>
	<path fill="#53BCCF" transform="scale(0.666667 0.666667)" d="M396.328 211.919C397.687 211.843 399.011 211.74 400.312 212.216C402.348 212.959 403.998 214.472 404.857 216.473C405.617 218.248 405.56 220.684 404.824 222.458C403.79 224.954 402.313 226.144 399.845 227.123C398.502 227.139 397.034 227.1 395.763 226.634C393.83 225.924 392.277 224.398 391.485 222.505C390.685 220.594 390.505 218.182 391.345 216.255C392.334 213.987 394.127 212.83 396.328 211.919Z"/>
	<path fill="#53BCCF" transform="scale(0.666667 0.666667)" d="M241.309 555.039C244.626 555.001 247.539 554.841 250.688 556.212C254.242 557.76 256.285 560.265 257.593 563.85C259.08 567.927 258.77 572.712 256.785 576.569C254.622 580.771 251.677 582.501 247.31 583.892C244.421 584.275 241.812 584.381 239.096 583.136C235.249 581.373 232.193 578.461 230.746 574.435C229.456 570.844 229.541 566.281 231.31 562.861C233.484 558.658 236.99 556.496 241.309 555.039Z"/>
	<path fill="#53BCCF" transform="scale(0.666667 0.666667)" d="M416.233 554.349C419.604 554.662 421.95 554.809 425.051 556.431C428.044 557.996 430.12 560.144 431.124 563.432C432.536 568.055 432.103 573.187 429.72 577.413C427.527 581.3 424.11 582.883 420.019 584.033C416.08 583.993 412.877 583.504 409.536 581.172C406.328 578.932 404.184 575.545 403.566 571.672C402.907 567.538 403.442 563.441 405.993 560.028C408.666 556.453 411.983 555.044 416.233 554.349Z"/>
	<path fill="#53BCCF" transform="scale(0.666667 0.666667)" d="M363.518 554.747C366.861 554.784 369.776 555.281 372.69 557.014C376.031 559.001 378.573 562.263 379.544 566.046C380.526 569.871 380.177 573.764 377.981 577.125C375.295 581.234 371.653 583.267 366.902 584.203C363.333 584.116 360.636 583.608 357.661 581.529C353.828 578.85 350.759 575.291 349.974 570.548C349.35 566.785 350.122 563.099 352.44 560.045C355.237 556.357 359.137 555.242 363.518 554.747Z"/>
	<path fill="#FEADB5" transform="scale(0.666667 0.666667)" d="M474.619 554.006C476.584 553.87 478.929 553.98 480.82 554.556C484.667 555.727 487.419 557.891 489.314 561.457C491.24 565.081 491.999 569.971 490.722 573.938L490.528 574.5C490.083 575.827 489.576 576.97 488.729 578.101C485.86 581.933 482.51 583.247 477.959 584.018C473.627 583.981 470.16 583.034 466.688 580.357C463.524 577.918 461.148 573.735 460.68 569.77C460.252 566.151 461.012 562.373 463.362 559.513C466.427 555.783 470.014 554.554 474.619 554.006Z"/>
	<path fill="#FEADB5" transform="scale(0.666667 0.666667)" d="M299.819 553.632C301.468 553.515 303.243 553.596 304.875 553.884C308.634 554.547 312.071 556.706 314.272 559.819C316.721 563.283 317.341 567.352 316.634 571.463L316.526 572.062C316.132 574.34 315.267 576.534 313.96 578.453C311.562 581.973 308.181 583.678 304.077 584.37C300.46 584.103 296.757 583.152 293.71 581.132C289.934 578.628 287.706 574.919 286.875 570.504C286.208 566.957 286.471 562.653 288.756 559.688C291.623 555.967 295.31 554.376 299.819 553.632Z"/>
	<path fill="#FEADB5" transform="scale(0.666667 0.666667)" d="M530.313 553.965C533.686 553.791 536.626 553.951 539.753 555.452C543.593 557.296 546.574 560.395 547.914 564.481C549.03 567.888 548.642 572.353 547.063 575.549C544.76 580.21 541.17 582.638 536.39 584.18C532.163 584.604 528.418 583.901 524.777 581.624C521.257 579.422 518.789 575.762 518.003 571.688C517.26 567.834 517.809 563.102 520.089 559.875C522.685 556.2 526.071 554.765 530.313 553.965Z"/>
	<path fill="#FEADB5" transform="scale(0.666667 0.666667)" d="M630.114 425.783L659.05 425.622L710.798 425.543L733.46 425.509C736.52 425.509 740.431 425.076 743.381 425.686C744.758 425.971 745.422 426.761 746.17 427.875C746.312 429.426 746.456 430.791 745.472 432.122C744.32 433.679 743.092 433.892 741.247 434.193L647.847 434.441L632.384 434.34C631.116 434.333 628.117 434.613 627.168 433.93C625.997 433.085 624.913 431.596 624.769 430.125C624.652 428.927 625.142 427.76 626.018 426.938C627.131 425.892 628.674 425.913 630.114 425.783Z"/>
	<path fill="#FEADB5" transform="scale(0.666667 0.666667)" d="M119.092 425.434L132.619 425.345C135.201 425.336 139.206 424.807 141.432 426.278C142.314 426.861 143.277 427.671 143.457 428.753C143.698 430.197 142.974 432.295 141.985 433.36C140.862 434.569 139.818 434.726 138.227 434.833C134.854 435.062 131.34 434.854 127.957 434.834L108.795 434.735L47.7187 434.575L31.8483 434.458C29.7696 434.439 26.5236 434.778 24.5625 434.197C24.1206 434.066 23.2986 433.36 22.9579 433.048C22.082 432.246 21.5479 431.226 21.5073 430.032C21.4687 428.897 21.8389 427.909 22.6226 427.088C23.5635 426.102 24.8 425.814 26.1143 425.708C29.5835 425.431 33.2501 425.65 36.7373 425.645L56.7846 425.626L119.092 425.434Z"/>
	<path fill="#F6F5F5" transform="scale(0.666667 0.666667)" d="M64.7456 455.421C66.6122 455.293 68.4638 455.123 70.3251 455.405L70.875 455.496C72.6279 455.777 74.2613 456.271 75.9062 456.931C81.2924 459.093 86.8966 463.447 89.1484 468.894L89.3688 469.44C89.9628 470.89 90.4523 472.297 90.7811 473.834C92.6773 482.698 91.014 491.936 86.1176 499.534C82.4567 505.214 76.6836 508.529 70.2406 509.953C67.8825 510.187 65.2652 510.014 62.9665 509.446C56.6726 507.891 50.9828 503.217 47.6955 497.709C43.6112 490.865 43.1739 481.782 44.9729 474.188C45.7132 471.062 46.9364 468.197 48.7714 465.544C52.7806 459.747 57.9182 456.703 64.7456 455.421Z"/>
	<path fill="white" transform="scale(0.666667 0.666667)" d="M63.9064 463.251C68.2677 462.949 71.9113 463.543 75.8342 465.506C80.1366 467.66 82.9627 471.075 84.428 475.606C86.1618 480.967 85.3999 486.593 82.8533 491.581C80.2119 496.754 76.6298 499.706 71.1439 501.514C69.125 501.829 66.7542 501.866 64.75 501.485C59.6849 500.52 55.1648 497.984 52.2849 493.589C49.5699 489.445 48.6334 483.64 49.7155 478.779L49.8254 478.312C50.3484 475.837 51.1417 473.822 52.4315 471.658C55.1275 467.134 58.8379 464.544 63.9064 463.251Z"/>
	<path fill="#FFC5C9" transform="scale(0.666667 0.666667)" d="M679.736 328.627C688.251 328.161 697.421 330.567 704.435 335.514C713.474 341.889 718.339 351.846 720.071 362.561C721.913 373.949 718.26 384.153 711.761 393.375L710.603 394.95C704.442 402.578 695.346 407.664 685.593 408.714C676.481 409.556 668.654 407.326 661.159 402.188L659.017 400.684C649.513 393.222 645.135 380.668 643.768 369.047C642.654 359.576 646.58 350.621 652.387 343.324C659.144 334.834 669.066 329.855 679.736 328.627Z"/>
	<path fill="#FFD4D5" transform="scale(0.666667 0.666667)" d="M384.804 520.777C385.118 522.804 384.961 525.05 384.98 527.107L385.071 538.122L321.431 538.151L321.752 368.822C323.347 368.049 328.192 368.615 330.105 368.615L353.282 368.533L384.439 368.55L384.804 520.777Z"/>
	<path fill="#FFC5C9" transform="scale(0.666667 0.666667)" d="M353.282 368.533L384.439 368.55L384.804 520.777C384.028 526.094 384.652 532.29 384.663 537.705L353.333 537.987C354.125 530.098 353.502 521.679 353.545 513.733L353.642 459.504L353.611 401.785C353.612 390.792 354.165 379.473 353.282 368.533Z"/>
	<path fill="#FEADB5" transform="scale(0.666667 0.666667)" d="M484.653 326.812L485.155 326.831C485.32 327.013 485.559 327.148 485.651 327.375C485.895 327.97 485.66 330.189 485.662 330.908L485.709 345.336L485.504 464.666L485.52 538.178L422.438 538.096L421.853 537.765C421.403 536.252 421.609 534.375 421.598 532.787L421.553 522.694L421.508 483.268L421.015 326.925L484.653 326.812Z"/>
	<path fill="#FFC5C9" transform="scale(0.666667 0.666667)" d="M567.262 537.872L532.806 537.76L533.828 230.893C538.932 230.433 544.32 230.716 549.458 230.685L580.777 230.566L592.063 230.556C593.351 230.554 595.236 230.281 596.43 230.587C596.887 230.704 596.97 230.806 597.3 231.053L597.461 537.663C595.778 538.505 571.323 537.83 567.262 537.872Z"/>
	<path fill="#FEADB5" transform="scale(0.666667 0.666667)" d="M567.262 537.872L567.063 231.044L585.897 230.965C589.658 230.932 593.558 230.685 597.3 231.053L597.461 537.663C595.778 538.505 571.323 537.83 567.262 537.872Z"/>
	<path fill="#53BCCF" transform="scale(0.666667 0.666667)" d="M170.762 186.384L232.452 186.423L232.146 537.423L170.44 537.348C169.697 535.9 170.238 483.084 170.237 477.562L170.762 186.384Z"/>
	<path fill="#53BCCF" transform="scale(0.666667 0.666667)" d="M239.642 186.348L303.857 186.639L304.001 536.812C303.73 537.015 303.51 537.319 303.188 537.42C302.442 537.655 300.638 537.422 299.807 537.423L289.567 537.434L239.543 537.526L239.642 186.348Z"/>
</svg>
