<?xml version="1.0" encoding="utf-8" ?>
<svg xmlns="http://www.w3.org/2000/svg" xmlns:xlink="http://www.w3.org/1999/xlink" width="512" height="512">
	<path fill="#1DCA7B" transform="scale(0.666667 0.666667)" d="M214.673 260.358C216.831 255.299 220.237 250.64 223.643 246.36C232.249 235.543 241.398 227.135 254.421 221.865C268.025 216.361 282.666 215.846 296.247 221.684C311.431 228.211 323.045 240.766 329.081 256.098C330.966 260.888 333.068 267.088 333.423 272.205C330.353 272.25 327.284 272.266 324.214 272.276C322.909 272.28 321.587 272.062 320.438 272.701L319.5 272.658C309.504 273.099 299.402 271.839 289.453 272.528L288.562 272.581C284.816 272.259 280.948 272.423 277.179 272.412C270.635 272.392 264.091 272.349 257.547 272.305C241.995 272.199 226.393 271.628 210.852 271.795C212.767 269.884 213.826 263.155 214.673 260.358Z"/>
	<path fill="#133F89" transform="scale(0.666667 0.666667)" d="M208.943 591.056C209.665 598.725 209.144 606.673 209.108 614.377C209.094 617.221 208.819 620.377 209.19 623.189L208.691 704.1C220.38 704.206 232.071 704.099 243.761 704.097C248.315 704.097 253.979 703.457 258.416 704.319L257.443 704.424C248.315 704.848 238.991 704.475 229.833 704.491C211.107 704.522 192.382 704.53 173.656 704.471C164.336 704.441 155.016 704.403 145.696 704.345C140.696 704.314 135.079 704.779 130.181 703.817C122.896 702.387 116.271 698.18 110.782 693.318C100.113 683.868 96.8384 672.472 95.9189 658.748L208.943 591.056Z"/>
	<path fill="#17BAC5" transform="scale(0.666667 0.666667)" d="M547.219 207.106C549.198 202.13 551.18 197.256 553.954 192.657C561.197 180.644 572.247 171.54 585.114 166.052C595.778 161.504 607.839 159.51 619.312 161.492C636.175 164.405 648.697 173.127 658.601 186.869C664.603 195.197 668.593 205.688 670.184 215.812C671.537 224.425 671.26 233.3 671.291 241.995C671.332 253.165 671.348 264.335 671.359 275.506C671.395 311.316 671.8 347.173 671.295 382.978C666.608 383.633 661.341 387.741 657.179 390.133C641.775 398.984 626.833 408.547 611.625 417.713C597.466 426.247 583.142 434.684 568.704 442.735C563.846 445.444 559.036 448.6 554.04 451.003L542.994 456.76L543.792 209.438C544.641 208.09 545.119 208.032 546.537 207.389L547.219 207.106Z"/>
	<path fill="#0AAFC1" transform="scale(0.666667 0.666667)" d="M547.219 207.106C547.955 206.932 548.613 206.766 549.327 206.515C550.706 206.029 552.728 206.27 554.196 206.279C554.141 213.222 553.83 220.155 553.794 227.088C553.549 274.486 553.947 321.893 553.817 369.294C553.767 387.709 553.775 406.123 553.821 424.538C553.835 430.213 553.85 435.888 553.869 441.562C553.879 444.665 553.711 447.921 554.04 451.003L542.994 456.76L543.792 209.438C544.641 208.09 545.119 208.032 546.537 207.389L547.219 207.106Z"/>
	<defs>
		<linearGradient id="gradient_0" gradientUnits="userSpaceOnUse" x1="633.93799" y1="703.31201" x2="623.64697" y2="385.31">
			<stop offset="0" stop-color="#164583"/>
			<stop offset="1" stop-color="#157090"/>
		</linearGradient>
	</defs>
	<path fill="url(#gradient_0)" transform="scale(0.666667 0.666667)" d="M554.04 451.003C559.036 448.6 563.846 445.444 568.704 442.735C583.142 434.684 597.466 426.247 611.625 417.713C626.833 408.547 641.775 398.984 657.179 390.133C661.341 387.741 666.608 383.633 671.295 382.978C671.051 449.817 670.993 516.671 670.96 583.511C670.951 602.239 670.988 620.966 670.955 639.694C670.945 645.127 670.93 650.56 670.896 655.993C670.871 660.005 670.987 664.248 670.312 668.212C668.807 677.061 663.678 686.514 657.351 692.848C651.901 698.304 644.76 701.982 637.219 703.542C633.247 704.364 629.25 704.216 625.217 704.234C619.514 704.26 613.811 704.277 608.109 704.293C589.287 704.344 570.462 704.44 551.641 704.379L551.019 704.352C548.733 704.089 545.005 704.881 543.025 703.814C542.738 701.132 542.913 698.278 542.904 695.575C542.887 690.412 542.898 685.249 542.9 680.087C542.908 663.321 542.957 646.554 542.901 629.789L543.075 509.884C542.84 508.451 543.025 506.669 543.024 505.197C543.024 502.009 543.024 498.821 543.028 495.634C543.046 482.683 543.343 469.706 542.994 456.76L554.04 451.003Z"/>
	<path fill="#133F89" transform="scale(0.666667 0.666667)" d="M543.075 509.884L543.538 509.424C543.528 507.709 543.042 503.231 543.934 501.938C543.701 497.332 543.943 492.644 543.947 488.024C543.957 478.16 543.989 468.257 543.934 458.438L543.842 457.875C544.101 457.182 543.939 457.221 544.651 456.864C545.053 456.663 545.411 456.384 545.812 456.184L546.373 455.998L547.875 455.059L548.237 454.978C548.771 454.845 548.934 454.619 549.375 454.309C549.967 453.892 550.605 453.669 551.248 453.373L551.906 452.998C552.416 452.732 552.897 452.538 553.406 452.248L553.691 452.25L553.502 452.719C553.297 453.334 553.299 453.689 553.316 454.312L553.691 454.688C553.688 461.801 553.684 468.914 553.685 476.027C553.685 479.492 553.404 483.221 553.741 486.656C554.268 492.031 553.632 497.967 553.728 503.429C553.773 505.989 554.05 508.704 554.129 511.312C554.556 525.412 554.242 539.627 554.243 553.739C554.247 590.03 554.912 626.317 554.811 662.608C554.791 669.461 554.687 676.4 554.463 683.25C554.281 688.824 553.802 694.375 554.25 699.938C554.364 701.349 553.672 702.138 553.783 703.5C553.169 704.114 549.461 703.887 548.42 703.888C547.841 703.888 547.32 703.833 546.75 703.783C545.639 703.685 544.517 703.831 543.406 703.627L543.025 703.814C542.738 701.132 542.913 698.278 542.904 695.575C542.887 690.412 542.898 685.249 542.9 680.087C542.908 663.321 542.957 646.554 542.901 629.789L543.075 509.884Z"/>
	<defs>
		<linearGradient id="gradient_1" gradientUnits="userSpaceOnUse" x1="467.81201" y1="129.562" x2="625.70599" y2="413.11801">
			<stop offset="0" stop-color="#69E2E6"/>
			<stop offset="1" stop-color="#40D7FF"/>
		</linearGradient>
	</defs>
	<path fill="url(#gradient_1)" transform="scale(0.666667 0.666667)" d="M456.418 137.481C465.765 128.776 479.612 121.031 492.8 121.638C507.613 122.32 523.903 131.091 533.67 142.024C538.901 147.878 542.916 155.365 544.689 163.021C546.008 168.719 546.009 174.761 546.032 180.585C546.058 187.259 546.037 193.934 546.041 200.609C546.042 202.399 545.644 205.838 546.537 207.389C545.119 208.032 544.641 208.09 543.792 209.438L542.994 456.76C542.255 457.252 541.598 457.636 540.791 458.01C534.686 460.848 528.766 464.672 523.005 468.16C513.55 473.884 504.149 479.727 494.625 485.336C485.539 490.688 476.495 496.145 467.371 501.426C461.115 505.047 453.634 508.488 448.137 513.192L447.797 513.45C445.196 514.612 442.672 515.927 440.134 517.219C438.652 517.973 437.042 519.003 435.405 519.304L435.53 459.131C435.957 451.246 435.618 443.115 435.629 435.204C435.653 417.715 435.518 400.226 435.48 382.737C435.384 337.974 435.725 293.206 435.752 248.442C435.762 231.122 435.733 213.809 436.022 196.49C436.152 188.701 435.695 180.114 436.985 172.477C438.72 162.205 443.07 153.445 449.256 145.151C449.57 143.396 455.009 138.841 456.418 137.481Z"/>
	<path fill="#0AAFC1" transform="scale(0.666667 0.666667)" d="M449.256 145.151C448.153 155.483 448.753 166.347 448.644 176.762C448.401 200.005 448.487 223.255 448.464 246.499C448.4 310.269 447.813 374.04 447.77 437.809C447.764 446.691 447.21 511.855 448.137 513.192L447.797 513.45C445.196 514.612 442.672 515.927 440.134 517.219C438.652 517.973 437.042 519.003 435.405 519.304L435.53 459.131C435.957 451.246 435.618 443.115 435.629 435.204C435.653 417.715 435.518 400.226 435.48 382.737C435.384 337.974 435.725 293.206 435.752 248.442C435.762 231.122 435.733 213.809 436.022 196.49C436.152 188.701 435.695 180.114 436.985 172.477C438.72 162.205 443.07 153.445 449.256 145.151Z"/>
	<path fill="#4281D8" transform="scale(0.666667 0.666667)" d="M542.994 456.76C543.343 469.706 543.046 482.683 543.028 495.634C543.024 498.821 543.024 502.009 543.024 505.197C543.025 506.669 542.84 508.451 543.075 509.884L542.901 629.789C542.957 646.554 542.908 663.321 542.9 680.087C542.898 685.249 542.887 690.412 542.904 695.575C542.913 698.278 542.738 701.132 543.025 703.814C545.005 704.881 548.733 704.089 551.019 704.352L431.441 704.334C429.268 704.733 426.276 704.352 424.038 704.349C417.647 704.338 411.256 704.329 404.865 704.324C381.199 704.305 357.532 704.293 333.865 704.278L333.488 576.421C334.965 576.115 336.346 575.034 337.641 574.28C339.989 572.913 342.4 571.614 344.809 570.355C368.704 557.863 391.547 543.461 415.277 530.641C419.707 528.248 424.101 525.786 428.526 523.383C430.821 522.136 432.991 520.737 435.439 519.817L435.405 519.304C437.042 519.003 438.652 517.973 440.134 517.219C442.672 515.927 445.196 514.612 447.797 513.45L448.137 513.192C453.634 508.488 461.115 505.047 467.371 501.426C476.495 496.145 485.539 490.688 494.625 485.336C504.149 479.727 513.55 473.884 523.005 468.16C528.766 464.672 534.686 460.848 540.791 458.01C541.598 457.636 542.255 457.252 542.994 456.76Z"/>
	<path fill="#315AE0" transform="scale(0.666667 0.666667)" d="M534.566 684.187L535.688 684.191L536.25 685.312L536.812 685.316L537.184 685.875L536.434 686.812L535.664 687.512L535.127 687.373L534.941 686.625L534.377 686.248C534.19 685.304 534.258 685.111 534.566 684.187Z"/>
	<path fill="#315AE0" transform="scale(0.666667 0.666667)" d="M433.989 704.172L447.482 704.277L447.632 573.99C447.887 583.324 447.812 592.682 447.864 602.021C447.877 604.417 447.249 609.454 448.142 611.437C448.521 612.279 448.334 613.582 448.336 614.505C448.341 616.851 448.487 619.326 448.259 621.656C447.872 625.604 448.299 629.949 448.314 633.94C448.337 639.756 448.102 645.589 448.102 651.375C448.102 653.978 448.516 656.531 448.258 659.156C448.12 660.571 448.213 661.593 447.934 663C447.744 663.958 447.909 665.311 447.909 666.303C447.911 668.908 447.913 671.512 447.922 674.117C447.926 675.345 447.647 677.379 448.309 678.375L448.316 686.438L448.469 686.004C448.679 685.478 448.836 685.299 449.25 684.941L449.567 684.87C450.049 684.749 450.481 684.566 450.938 684.375L451.594 684.469L452.531 684.189L453.094 684.189L453.539 684.142C454.316 684.062 453.744 684.105 454.5 684.105C455.065 684.105 455.388 683.886 455.906 683.814L456.469 683.814C456.977 683.729 457.034 683.624 457.406 683.344L460.043 683.361C460.653 683.361 460.977 683.142 461.531 683.064L462.094 683.064L462.539 683.017L463.969 682.969C465.024 682.974 465.482 683.431 466.406 683.344L467.344 683.344C468.239 683.349 469.915 683.112 470.719 683.344C471.567 683.588 470.819 683.826 472.031 683.719L472.969 683.719L473.438 683.441L473.906 683.814L474.656 683.719C477.738 683.485 481.864 684.427 484.688 683.25L485.344 683.344L486.191 683.438L486.75 682.875L488.441 683.062L488.906 682.594L492.668 682.611C493.278 682.611 493.602 682.392 494.156 682.314L495.562 682.316L495.934 682.875L496.316 682.875L496.502 682.127L496.873 682.127L497.438 683.066L497.947 682.885C498.862 682.58 499.578 682.589 500.531 682.594C501.853 682.601 503.157 682.621 504.469 682.502C505.021 682.452 504.977 682.545 505.594 682.594C506.408 682.658 506.599 682.673 507.281 682.219C508.37 682.219 508.426 682.673 509.531 682.594C510.04 682.557 510.449 682.662 510.941 682.5L511.312 681.75L511.875 682.316L512.602 682.08C513.34 681.848 513.826 681.844 514.594 681.844L515.168 681.814C515.818 681.814 516.115 681.995 516.656 682.314L517.406 682.219C518.339 682.122 518.894 682.339 519.752 682.594C520.463 682.806 519.785 682.594 520.781 682.594C521.431 682.594 522.042 683.062 522.75 683.062L523.406 683.439L524.156 683.344L524.625 683.812L525.281 683.719L525.75 684.188L526.125 684.188L526.559 684.457C526.893 684.658 527.291 684.737 527.625 684.938L528 685.312L528.375 685.312L528.773 685.57C529.325 685.901 529.828 686.066 530.438 686.25L531.281 687.189L531.75 687.188C532.544 687.75 533.168 688.364 533.906 688.969L534.311 689.233C534.892 689.622 535.297 690.062 535.781 690.564L536.25 690.562L536.567 691.016C537.351 692.121 537.984 692.903 539.104 693.692C539.638 694.069 539.922 694.528 540.281 695.064L540.75 695.062C541.316 695.825 541.755 696.405 542.062 697.316C542.529 695.906 542.262 693.938 542.25 692.438L541.502 692.248L541.316 691.312L541.873 691.219L542.25 691.125C542.237 677.05 542.399 662.956 542.469 648.909C542.489 644.827 542.509 640.745 542.534 636.663C542.548 634.412 542.369 631.989 542.901 629.789C542.957 646.554 542.908 663.321 542.9 680.087C542.898 685.249 542.887 690.412 542.904 695.575C542.913 698.278 542.738 701.132 543.025 703.814C545.005 704.881 548.733 704.089 551.019 704.352L431.441 704.334L433.989 704.172Z"/>
	<path fill="#033A6A" transform="scale(0.666667 0.666667)" d="M435.405 519.304C437.042 519.003 438.652 517.973 440.134 517.219C442.672 515.927 445.196 514.612 447.797 513.45L447.632 573.99L447.482 704.277L433.989 704.172C434.763 699.164 434.226 693.31 434.25 688.192C434.3 677.141 434.372 666.091 434.487 655.041C434.937 611.817 435.188 568.602 435.184 525.375C435.963 524.206 435.493 521.277 435.439 519.817L435.405 519.304Z"/>
	<path fill="#133F89" transform="scale(0.666667 0.666667)" d="M333.488 576.421C334.965 576.115 336.346 575.034 337.641 574.28C339.989 572.913 342.4 571.614 344.809 570.355C368.704 557.863 391.547 543.461 415.277 530.641C419.707 528.248 424.101 525.786 428.526 523.383C430.821 522.136 432.991 520.737 435.439 519.817C435.493 521.277 435.963 524.206 435.184 525.375C435.188 568.602 434.937 611.817 434.487 655.041C434.372 666.091 434.3 677.141 434.25 688.192C434.226 693.31 434.763 699.164 433.989 704.172L431.441 704.334C429.268 704.733 426.276 704.352 424.038 704.349C417.647 704.338 411.256 704.329 404.865 704.324C381.199 704.305 357.532 704.293 333.865 704.278L333.488 576.421Z"/>
	<defs>
		<linearGradient id="gradient_2" gradientUnits="userSpaceOnUse" x1="163.312" y1="192.562" x2="97.808197" y2="657.36298">
			<stop offset="0" stop-color="#6CF559"/>
			<stop offset="1" stop-color="#3BBE8C"/>
		</linearGradient>
	</defs>
	<path fill="url(#gradient_2)" transform="scale(0.666667 0.666667)" d="M95.9189 658.748C95.1969 649.091 95.8066 638.991 95.8346 629.282C95.8894 610.23 95.9492 591.179 95.9891 572.127C96.1085 515.245 95.8924 458.362 96.0508 401.48C96.1537 364.555 96.0042 327.63 96.0777 290.705C96.0996 279.706 96.1564 268.709 96.2486 257.71C96.3037 251.13 96.0083 244.336 96.8824 237.809C98.1881 228.058 103.247 218.818 109.62 211.473C120.461 198.979 135.304 192.7 151.599 191.518C167.43 190.37 183.361 196.532 195.228 206.885C208.033 218.056 213.998 232.953 215.074 249.691C215.195 251.578 215.193 253.492 214.998 255.375C214.851 256.793 214.445 258.233 214.587 259.66L214.673 260.358C213.826 263.155 212.767 269.884 210.852 271.795C209.833 272.552 209.908 272.626 209.709 273.877C208.707 280.196 209.14 287.312 209.055 293.733C208.868 307.873 208.864 322.01 208.861 336.152C208.858 346.039 208.865 355.926 208.857 365.813C208.854 370.575 208.49 375.672 208.921 380.4L208.943 591.056L95.9189 658.748Z"/>
	<defs>
		<linearGradient id="gradient_3" gradientUnits="userSpaceOnUse" x1="334.31201" y1="518.06201" x2="194.672" y2="143.90199">
			<stop offset="0" stop-color="#66C4DB"/>
			<stop offset="1" stop-color="#8DF1E7"/>
		</linearGradient>
	</defs>
	<path fill="url(#gradient_3)" transform="scale(0.666667 0.666667)" d="M333.701 272.38C334.451 272.399 334.933 272.315 335.639 272.062C336.403 268.547 336.025 264.343 336.053 260.71C336.102 254.383 336.217 248.057 336.273 241.73C336.469 219.486 336.684 197.246 336.748 175.002C336.788 161.026 335.969 146.299 337.695 132.452C339.989 114.043 349.975 94.8368 364.682 83.3768C376.127 74.4589 391.021 68.0541 405.815 69.9776C414.504 71.1073 422.191 74.2117 429.365 79.2808C444.819 90.1997 451.987 106.516 454.967 124.744C455.624 128.759 455.575 132.939 456.307 136.904L456.418 137.481C455.009 138.841 449.57 143.396 449.256 145.151C443.07 153.445 438.72 162.205 436.985 172.477C435.695 180.114 436.152 188.701 436.022 196.49C435.733 213.809 435.762 231.122 435.752 248.442C435.725 293.206 435.384 337.974 435.48 382.737C435.518 400.226 435.653 417.715 435.629 435.204C435.618 443.115 435.957 451.246 435.53 459.131L435.405 519.304L435.439 519.817C432.991 520.737 430.821 522.136 428.526 523.383C424.101 525.786 419.707 528.248 415.277 530.641C391.547 543.461 368.704 557.863 344.809 570.355C342.4 571.614 339.989 572.913 337.641 574.28C336.346 575.034 334.965 576.115 333.488 576.421L333.3 520.131L333.42 519.073L333.592 348.061L333.701 272.38Z"/>
	<path fill="#4281D8" transform="scale(0.666667 0.666667)" d="M435.53 459.131L435.405 519.304L435.439 519.817C432.991 520.737 430.821 522.136 428.526 523.383C424.101 525.786 419.707 528.248 415.277 530.641C391.547 543.461 368.704 557.863 344.809 570.355C342.4 571.614 339.989 572.913 337.641 574.28C336.346 575.034 334.965 576.115 333.488 576.421L333.3 520.131L333.42 519.073L333.729 518.928C335.782 518.264 337.903 516.589 339.787 515.46C344.814 512.45 349.784 509.353 354.797 506.32C363.067 501.317 371.223 496.138 379.531 491.196C384.705 488.118 390.036 485.292 395.167 482.152C404.516 476.431 413.861 470.911 423.449 465.595C427.399 463.405 431.376 460.903 435.53 459.131Z"/>
	<path fill="#05B366" transform="scale(0.666667 0.666667)" d="M210.852 271.795C226.393 271.628 241.995 272.199 257.547 272.305C264.091 272.349 270.635 272.392 277.179 272.412C280.948 272.423 284.816 272.259 288.562 272.581L289.453 272.528C299.402 271.839 309.504 273.099 319.5 272.658L320.438 272.701C321.587 272.062 322.909 272.28 324.214 272.276C327.284 272.266 330.353 272.25 333.423 272.205L333.701 272.38L333.592 348.061L333.42 519.073L333.3 520.131L333.488 576.421L333.865 704.278L258.416 704.319C253.979 703.457 248.315 704.097 243.761 704.097C232.071 704.099 220.38 704.206 208.691 704.1L209.19 623.189C208.819 620.377 209.094 617.221 209.108 614.377C209.144 606.673 209.665 598.725 208.943 591.056L208.921 380.4C208.49 375.672 208.854 370.575 208.857 365.813C208.865 355.926 208.858 346.039 208.861 336.152C208.864 322.01 208.868 307.873 209.055 293.733C209.14 287.312 208.707 280.196 209.709 273.877C209.908 272.626 209.833 272.552 210.852 271.795Z"/>
	<path fill="#00926A" transform="scale(0.666667 0.666667)" d="M222.46 500.189C223.427 501.488 222.947 505.824 222.934 507.562C223.522 508.151 223.309 508.45 223.309 509.25C222.728 509.836 223.353 510.827 222.934 511.875C223.922 513.358 223.309 575.448 223.309 583.163L229.877 579.377C230.854 578.97 231.558 578.313 232.502 577.877C234 577.185 235.564 576.282 237 575.441L238.502 574.502L239.625 573.941L240.377 573.377C241.564 572.798 242.916 571.98 244.127 571.502C245.118 571.11 245.802 570.439 246.752 570.002C247.43 569.69 248.072 569.135 248.719 568.877C249.592 568.528 250.354 568.31 251.052 567.612C251.421 567.243 251.675 567.293 252.188 567.191C252.612 566.767 252.969 566.534 253.502 566.252L256.747 564.436L257.25 564.191L257.812 563.816C258.471 563.497 258.808 563.618 259.383 563.043L259.688 562.691C260.413 562.515 260.921 562.381 261.551 561.961L273.377 555.002C273.967 554.691 274.503 554.445 275.062 554.072L278.25 552.191C279.678 551.521 281.004 550.332 282.377 549.752C283.569 549.248 284.463 548.506 285.616 547.931L286.664 547.38C288.516 546.296 291.527 545.108 292.999 543.636C293.359 543.276 293.143 543.417 293.667 543.183C295.853 542.21 298.851 540.519 300.703 539.037C301.952 538.038 303.528 537.332 304.875 536.441L305.719 535.877C306.2 535.632 306.412 535.38 306.844 535.127C307.739 534.601 308.779 534.252 309.691 533.709L313.502 531.377C314.402 530.963 313.763 531.453 314.396 530.909L314.719 530.627C316.202 529.75 317.797 528.932 319.316 528.095L319.316 517.125C319.44 516.939 319.623 516.78 319.688 516.566C320.206 514.852 319.694 511.072 319.7 509.118C319.725 500.786 319.755 492.453 319.818 484.121C319.963 465.011 320.463 445.901 320.634 426.792C320.802 408.125 320.652 389.459 321.004 370.794C321.097 365.903 321.109 361.01 321.147 356.118C321.164 353.899 320.923 351.296 321.307 349.125C322.208 344.038 321.505 338.174 321.842 333C322.221 327.181 321.392 321.139 321.842 315.375C322.121 311.796 321.939 308.1 321.934 304.5C321.81 304.375 321.645 304.28 321.562 304.125C321.291 303.614 321.456 276.327 321.455 272.714C324.522 272.833 328.295 273.178 331.314 272.718C332.124 272.595 332.207 272.805 332.906 273.186C332.964 274.159 333.061 275.103 332.903 276.07C332.614 277.838 333.017 280.03 333.018 281.877C333.02 284.823 332.44 288.542 332.903 291.375C333.227 293.362 333.016 295.663 333.017 297.687C333.02 301.513 333.017 305.339 333.005 309.164C333 310.782 332.774 312.454 333 314.062C333.434 317.154 333.202 320.481 333.207 323.614C333.215 329.332 333.219 335.05 333.234 340.769C333.239 342.739 332.881 345.709 333.428 347.551L333.592 348.061L333.42 519.073L333.3 520.131C330.107 522.634 326.716 524.665 323.289 526.813C322.719 527.171 320.736 528.119 320.434 528.596L222.343 584.613L222.331 572.04C223.151 565.864 222.471 558.733 222.463 552.469C222.44 535.104 221.791 517.53 222.46 500.189Z"/>
	<path fill="#007660" transform="scale(0.666667 0.666667)" d="M208.921 380.4L208.965 379.905C209.509 373.144 209.32 366.183 209.37 359.396C209.391 356.639 209.043 353.295 209.634 350.625C209.778 349.974 209.829 349.465 209.722 348.81C209.161 345.374 209.988 341.367 209.717 337.875C209.172 330.869 210.444 323.586 209.759 316.594C209.519 314.14 209.859 311.406 209.822 308.913C209.74 303.393 209.583 297.849 209.59 292.305C209.594 289.576 209.301 286.686 210 284.062C210.402 282.554 210.185 279.727 210.031 278.156C209.935 277.175 210.14 275.999 210.446 275.07C210.63 274.51 210.494 274.12 210.375 273.562L210.656 272.906C211.535 272.866 212.556 273.065 213.188 272.434C213.984 272.436 214.287 272.227 214.875 272.809L221.066 272.809L221.066 293.812L221.441 294.188C221.435 297.737 221.3 301.342 221.533 304.875L222.46 500.189C221.791 517.53 222.44 535.104 222.463 552.469C222.471 558.733 223.151 565.864 222.331 572.04L222.276 571.599L221.812 524.732C221.44 526.011 221.602 527.46 221.602 528.789C221.601 531.459 221.603 534.13 221.606 536.8C221.618 551.571 221.615 566.343 221.623 581.114C221.624 582.07 222.021 583.996 221.062 584.441L220.127 584.627C219.704 585.049 219.735 585.131 219.142 585.249C218.469 585.382 218.413 585.603 217.875 585.941L216.752 586.502L216.083 586.887C214.36 587.869 211.578 589.75 209.625 589.688C209.613 584.675 209.582 579.68 209.809 574.688C209.875 573.225 209.638 571.666 209.625 570.188C209.556 562.533 209.124 554.349 209.717 546.75L209.625 533.438L209.246 533.438C209.243 540.227 210.044 588.911 208.943 591.056L208.921 380.4Z"/>
	<path fill="#033A6A" transform="scale(0.666667 0.666667)" d="M320.434 528.596C320.736 528.119 322.719 527.171 323.289 526.813C326.716 524.665 330.107 522.634 333.3 520.131L333.488 576.421L333.865 704.278L258.416 704.319C253.979 703.457 248.315 704.097 243.761 704.097C232.071 704.099 220.38 704.206 208.691 704.1L209.19 623.189C208.819 620.377 209.094 617.221 209.108 614.377C209.144 606.673 209.665 598.725 208.943 591.056C210.044 588.911 209.243 540.227 209.246 533.438L209.625 533.438L209.717 546.75C209.124 554.349 209.556 562.533 209.625 570.188C209.638 571.666 209.875 573.225 209.809 574.688C209.582 579.68 209.613 584.675 209.625 589.688C211.578 589.75 214.36 587.869 216.083 586.887L216.752 586.502L217.875 585.941C218.413 585.603 218.469 585.382 219.142 585.249C219.735 585.131 219.704 585.049 220.127 584.627L221.062 584.441C222.021 583.996 221.624 582.07 221.623 581.114C221.615 566.343 221.618 551.571 221.606 536.8C221.603 534.13 221.601 531.459 221.602 528.789C221.602 527.46 221.44 526.011 221.812 524.732L222.276 571.599L222.331 572.04L222.343 584.613L320.434 528.596Z"/>
	<path fill="#002A60" transform="scale(0.666667 0.666667)" d="M320.434 528.596C320.736 528.119 322.719 527.171 323.289 526.813C326.716 524.665 330.107 522.634 333.3 520.131L333.488 576.421L333.865 704.278L258.416 704.319C253.979 703.457 248.315 704.097 243.761 704.097C232.071 704.099 220.38 704.206 208.691 704.1L209.19 623.189C210.21 624.689 209.631 649.01 209.625 652.875C208.804 654.107 209.25 657.995 209.25 659.625C210.115 660.923 209.625 665.381 209.625 667.125C208.804 668.357 209.25 672.245 209.25 673.875C210.247 675.37 209.625 687.666 209.625 690.375C209.009 691.299 209.25 692.611 209.25 693.723C209.25 697.04 209.25 700.356 209.25 703.672L218.438 703.691C219.753 703.783 221.066 703.611 222.364 703.738L222.75 703.783C232.632 703.291 242.721 703.678 252.63 703.679C274.986 703.68 297.365 703.943 319.691 703.875L319.706 688.5C320.624 687.1 320.146 660.901 320.152 657.405C320.221 614.468 320.437 571.532 320.434 528.596Z"/>
</svg>
