<?xml version="1.0" encoding="utf-8" ?>
<svg xmlns="http://www.w3.org/2000/svg" xmlns:xlink="http://www.w3.org/1999/xlink" width="512" height="512">
	<path fill="#3200DA" transform="scale(0.666667 0.666667)" d="M0.375 768C-0.768032 765.475 -0.0265929 593.94 -0.0270797 578.027C-0.0309552 451.35 -0.0260204 324.674 -0.0177517 197.997C-0.0134534 132.147 -0.421241 66.269 0.046875 0.421875L0.75 0L768 0L768 768L0.375 768Z"/>
	<path fill="#E815FD" transform="scale(0.666667 0.666667)" d="M207.024 316.312L207.236 316.324C208.495 316.686 208.525 318.313 209.244 319.321C209.986 320.362 211.021 320.114 211.675 321.188L207.188 326.596C205.735 326.147 205.539 324.517 204.663 323.438C204.098 322.741 203.343 322.123 202.662 321.539L202.168 321.121C203.074 320.637 204.411 320.117 205.204 319.499C205.765 319.062 206.617 317.024 207.024 316.312Z"/>
	<path fill="#01C2F2" transform="scale(0.666667 0.666667)" d="M212.424 256.312L213.21 256.037C214.567 256.888 215.248 259.29 215.872 260.728C215.914 260.825 216.315 261.854 216.373 261.889C217.496 262.575 219.255 262.538 220.512 263.292C221.267 263.745 221.022 263.465 221.229 264.375C220.054 266.1 217.428 266.426 215.521 266.913C215.13 268.373 214.767 269.624 214.007 270.938L213.699 271.11C210.199 272.424 210.122 268.851 208.444 267.453C207.818 266.931 206.133 266.556 205.284 266.091L205.047 264.938C206.064 261.212 207.609 263.334 209.691 261.677C210.901 260.714 211.271 257.736 212.424 256.312Z"/>
	<path fill="#2774FE" transform="scale(0.666667 0.666667)" d="M244.857 449.002C245.816 446.926 246.937 445.395 249.014 444.321C252.46 442.539 258.316 442.941 262.122 443.072C264.104 443.14 266.18 443.142 268.077 443.771C271.284 444.834 273.909 446.393 276.698 448.27C272.189 448.767 267.157 448.632 262.675 447.976C258.665 447.367 254.367 448.076 250.342 448.413C248.496 448.568 246.645 448.462 244.857 449.002Z"/>
	<path fill="#01C2F2" transform="scale(0.666667 0.666667)" d="M247.902 204.938L249.188 204.783C251.187 206.069 251.742 208.61 253.298 210.332C254.61 211.784 256.819 211.984 257.99 213.562C257.693 216.924 255.137 216.164 253.049 217.97C252.102 218.788 251.279 220.851 250.688 221.977L249.938 222.846L248.885 222.562C247.141 221.231 247.044 218.931 246.688 216.908L245.578 216.66C243.633 216.216 242.311 216.119 241.177 214.312C241.263 211.433 241.96 211.539 244.518 210.785C244.709 210.729 245.747 210.504 245.872 210.386C246.437 209.851 247.296 206.006 247.902 204.938Z"/>
	<path fill="#E815FD" transform="scale(0.666667 0.666667)" d="M342.162 231.938L342.91 231.857C343.958 233.446 344.201 235.393 345.326 236.916L350.498 237.05L349.239 243.311L352.144 245.812L351.938 246.555C350.135 247.262 347.999 247.165 346.079 247.267C346.017 249.247 346.115 251.291 344.988 252.938C343.846 253.166 343.926 253.194 342.95 252.562L341.984 250.124L341.528 248.812L340.875 248.583L336.775 250.731C336.753 249.128 337.074 247.287 336.188 245.942C334.399 245.161 332.965 244.326 331.688 242.827C332.492 241.502 334.81 240.883 336.245 240.32L335.735 235.696C337.445 235.709 339.376 236.448 341.043 236.881C341.316 235.182 341.651 233.582 342.162 231.938Z"/>
	<path fill="#FE96FE" transform="scale(0.666667 0.666667)" d="M388.492 352.883L389.081 352.568C392.555 350.817 399.431 350.547 403.134 351.768L403.318 366.547L401.901 366.715L389.249 366.73C389.256 363.085 390.064 355.983 388.492 352.883Z"/>
	<path fill="#0E01AB" transform="scale(0.666667 0.666667)" d="M0.375 768C-0.768032 765.475 -0.0265929 593.94 -0.0270797 578.027C-0.0309552 451.35 -0.0260204 324.674 -0.0177517 197.997C-0.0134534 132.147 -0.421241 66.269 0.046875 0.421875L0.75 0C-0.10545 3.6443 0.457265 8.31987 0.455247 12.1141C0.450608 20.8401 0.467382 29.5658 0.480613 38.2917C0.531211 71.6614 0.449418 105.032 0.451668 138.402C0.461948 290.859 0.502427 443.316 0.476668 595.773C0.46969 637.076 0.465627 678.378 0.445499 719.681C0.440016 730.931 0.467265 742.181 0.48217 753.43C0.4882 757.982 1.11455 763.587 0.375 768Z"/>
	<path fill="#B9F5FE" transform="scale(0.666667 0.666667)" d="M128.649 455.296C133.696 455.533 139.095 454.972 144.056 455.564L144.061 472.733L144.152 502.627L126.744 502.579C126.747 490.839 126.572 479.105 126.48 467.367C126.464 465.29 126.45 463.214 126.437 461.137C126.433 460.553 126.243 459.135 126.422 458.616C126.821 457.457 127.906 456.255 128.649 455.296Z"/>
	<path fill="#3608F9" transform="scale(0.666667 0.666667)" d="M585.399 461.062C587.701 460.787 590.281 460.999 592.615 460.987C592.006 466.125 592.253 471.561 592.21 476.745C592.132 486.304 592.092 495.863 592.056 505.422C591.936 537.513 591.988 569.596 592.2 601.688C592.037 602.054 591.811 602.307 591.562 602.619L584.897 602.602C584.874 568.564 585.032 534.526 585.048 500.487C585.052 491.391 585.082 482.294 585.032 473.197C585.017 470.433 584.995 467.669 584.987 464.905C584.983 463.567 584.801 462.3 585.399 461.062Z"/>
	<path fill="#3608F9" transform="scale(0.666667 0.666667)" d="M646.479 168.451C650.187 167.922 653.903 168.465 657.188 170.281C661.843 172.855 664.484 177.837 665.864 182.785C667.312 187.983 666.597 193.373 663.832 198.042C661.135 202.594 656.359 205.855 651.27 207.051C647.402 206.97 644.262 206.264 640.854 204.385C636.018 201.72 631.772 197.075 630.386 191.644C629.118 186.675 630.986 181.124 633.706 176.941C636.798 172.188 640.954 169.565 646.479 168.451Z"/>
	<path fill="#E815FD" transform="scale(0.666667 0.666667)" d="M113.74 304.932C117.232 304.743 120.021 305.121 123.188 306.737C128.273 309.332 133.074 314.082 134.715 319.669C136.036 324.167 135.313 328.724 133.062 332.812C130.125 338.147 124.86 341.524 119.119 343.116C115.143 343.635 111.103 342.847 107.625 340.831C103.079 338.196 99.2084 333.497 97.9272 328.338C96.7073 323.427 98.0125 317.843 100.659 313.616C103.665 308.814 108.319 306.138 113.74 304.932Z"/>
	<path fill="#0E01AB" transform="scale(0.666667 0.666667)" d="M470.409 534.027L473.32 533.944C472.644 540.634 472.751 547.41 472.705 554.129C472.64 563.507 472.61 572.885 472.61 582.263C472.609 587.351 473.193 593.1 472.58 598.073L472.312 601.814L455.877 601.925L455.817 597L455.523 596.438C455.298 595.612 455.475 594.149 455.473 593.274C455.47 590.855 455.464 588.435 455.458 586.016C455.43 574.057 455.4 562.098 455.405 550.139C455.406 547.245 455.412 544.351 455.416 541.458C455.418 540.32 455.245 538.859 455.441 537.75C455.525 537.276 455.735 537.013 456.002 536.627L456.562 536.441L456.938 536.066L459.621 536.164L460.125 536.158C461.737 536.156 463.844 536.375 465.339 535.737L467.625 534.941L467.776 534.656L470.409 534.027Z"/>
	<path fill="#E815FD" transform="scale(0.666667 0.666667)" d="M655.615 322.235C660.167 321.952 664.024 323.062 667.843 325.529C672.413 328.48 676.205 333.088 677.213 338.52C678.172 343.69 676.942 348.923 673.784 353.147C670.229 357.903 665.185 360.157 659.449 361.004C654.583 361.313 649.517 360.126 645.515 357.286C641.383 354.353 638.329 348.872 637.556 343.875C636.843 339.266 638.327 334.612 641.056 330.895C644.723 325.9 649.567 323.174 655.615 322.235Z"/>
	<path fill="#01C2F2" transform="scale(0.666667 0.666667)" d="M611.542 289.605C614.914 289.679 618.645 290.454 621.562 292.165C626.953 295.326 630.681 301.619 632.013 307.616C632.941 311.794 631.501 316.564 629.205 320.062C625.356 325.926 620.286 329.113 613.458 330.479C609.406 330.396 605.974 329.558 602.5 327.342C597.679 324.267 593.517 318.714 592.502 313.034C591.606 308.014 593.444 302.601 596.431 298.565C600.303 293.332 605.164 290.642 611.542 289.605Z"/>
	<path fill="#01C2F2" transform="scale(0.666667 0.666667)" d="M551.453 177.866C556.494 178.043 560.787 179.102 564.894 182.176C569.263 185.446 572.546 191.211 573.206 196.619C573.817 201.634 571.072 207.211 567.961 211.016C563.743 216.178 559.108 218.583 552.518 219.296C547.898 219.051 544.02 218.375 540.156 215.666C535.366 212.308 531.41 207.067 530.449 201.188C529.677 196.46 531.051 191.955 533.857 188.154C538.358 182.056 544.03 178.93 551.453 177.866Z"/>
	<path fill="#65FEFD" transform="scale(0.666667 0.666667)" d="M123.953 601.894L109.109 601.896L108.771 507.562C108.981 506.155 109.898 504.994 111.047 504.188C113.669 502.346 121.497 503.012 124.639 503.467L123.953 601.894Z"/>
	<path fill="#65FEFD" transform="scale(0.666667 0.666667)" d="M144.061 472.733L144.069 601.864L138.831 601.925L129.696 601.866L123.953 601.894L124.639 503.467L126.745 502.914L126.744 502.579L144.152 502.627L144.061 472.733Z"/>
	<path fill="#50EEFE" transform="scale(0.666667 0.666667)" d="M126.745 502.914L128.02 503.568L128.059 504.562L127.684 504.938C127.685 506.685 127.324 509.656 128.059 511.125L128.25 511.691L128.84 512.438L129.696 601.866L123.953 601.894L124.639 503.467L126.745 502.914Z"/>
	<path fill="#424EFE" transform="scale(0.666667 0.666667)" d="M606.982 462.087C609.643 462.374 619.088 461.72 620.545 462.718C620.55 491.943 620.487 521.168 620.552 550.393C620.571 558.662 620.588 566.931 620.593 575.199C620.595 577.909 621.05 581.525 620.537 584.153C619.691 583.052 620.167 569.746 620.166 567.509C620.161 550.339 620.13 533.17 620.066 516L619.687 515.917L619.54 602.163L604.931 602.182C604.969 572.475 604.926 542.766 604.836 513.059C604.807 503.461 604.781 493.863 604.783 484.265C604.784 479.434 604.435 474.242 604.914 469.454C605.174 466.855 605.973 464.477 606.982 462.087Z"/>
	<path fill="#424EFE" transform="scale(0.666667 0.666667)" d="M639.172 461.025L639.389 461.672C639.682 462.509 639.524 462.191 639.938 462.828C641.413 461.164 642.239 459.545 643.976 458.01L657.325 457.93L657.016 602.227L639.774 602.164C640.014 593.135 639.818 584.042 639.838 575.006C639.88 555.987 639.898 536.968 639.972 517.949C640.015 506.65 640.073 495.352 640.112 484.053C640.134 477.494 640.485 470.703 639.844 464.181C639.424 463.135 639.309 462.132 639.172 461.025Z"/>
	<path fill="#01C2F2" transform="scale(0.666667 0.666667)" d="M144.056 455.564C145.086 455.681 146.06 455.824 147.096 455.677C150.501 455.5 154.377 456.715 156.949 458.978C161.26 462.772 163.147 467.436 164.906 472.755L165.188 474L164.059 475.125L164.079 475.612C164.126 477.06 164.012 477.55 163.47 478.875C163.099 479.78 163.041 480.736 162.9 481.688C161.968 487.934 161.994 494.006 161.817 500.317C161.587 508.538 161.352 516.74 161.299 524.965C161.135 550.578 161.492 576.284 160.747 601.88L144.069 601.864L144.061 472.733L144.056 455.564Z"/>
	<path fill="#FE96FE" transform="scale(0.666667 0.666667)" d="M620.545 462.718C623.297 465.082 635.599 463.295 639.844 464.181C640.485 470.703 640.134 477.494 640.112 484.053C640.073 495.352 640.015 506.65 639.972 517.949C639.898 536.968 639.88 555.987 639.838 575.006C639.818 584.042 640.014 593.135 639.774 602.164L620.61 602.143L620.537 584.153C621.05 581.525 620.595 577.909 620.593 575.199C620.588 566.931 620.571 558.662 620.552 550.393C620.487 521.168 620.55 491.943 620.545 462.718Z"/>
	<path fill="#FEFEFE" transform="scale(0.666667 0.666667)" d="M280.284 238.638C287.806 238.432 295.127 240.816 301.224 245.187C308.139 250.146 312.35 257.163 313.732 265.562C315.246 274.765 313.128 284.16 307.637 291.714C301.899 299.606 293.177 304.129 283.689 305.645C275.47 305.669 267.901 303.174 261.413 298.079C254.275 292.474 249.697 284.216 248.755 275.188C247.869 266.698 250.615 257.739 256.106 251.196C262.216 243.916 270.826 239.412 280.284 238.638Z"/>
	<path fill="#01C2F2" transform="scale(0.666667 0.666667)" d="M280.928 255.846C283.942 255.731 287.089 256.377 289.757 257.813C293.752 259.964 295.903 263.469 297.124 267.726C298.356 272.016 297.859 276.537 295.582 280.349C292.933 284.784 289.084 287.565 284.091 288.849C280.269 288.791 276.949 288.055 273.711 285.92C270.072 283.519 267.203 279.569 266.424 275.242C265.653 270.952 266.77 266.071 269.293 262.516C272.236 258.369 276.072 256.764 280.928 255.846Z"/>
	<path fill="#2A32FE" transform="scale(0.666667 0.666667)" d="M552.7 602.201L540.136 602.181L540.497 296.989L552.429 297.006L552.7 602.201Z"/>
	<path fill="#01A3F4" transform="scale(0.666667 0.666667)" d="M190.683 470.285C191.097 471.416 190.99 472.742 191.019 473.94C191.093 476.902 190.872 480.064 191.131 482.993L190.898 483.017L190.818 601.892L201.949 601.918C197.88 602.832 192.462 602.281 188.238 602.28C179.325 602.277 170.412 602.27 161.499 602.287C156.082 602.296 150.663 602.328 145.246 602.282C143.45 602.267 140.465 602.603 138.831 601.925L144.069 601.864L160.747 601.88C161.492 576.284 161.135 550.578 161.299 524.965C161.352 516.74 161.587 508.538 161.817 500.317C161.994 494.006 161.968 487.934 162.9 481.688C163.041 480.736 163.099 479.78 163.47 478.875C164.012 477.55 164.126 477.06 164.079 475.612L164.059 475.125L165.188 474L164.906 472.755L165.979 472.079L166.416 471.683C169.076 469.49 174.649 470.171 177.941 470.402C180.726 470.097 183.85 470.238 186.655 470.362C188.007 470.422 189.369 470.695 190.683 470.285Z"/>
	<path fill="#B9F5FE" transform="scale(0.666667 0.666667)" d="M165.979 472.079L166.416 471.683C169.076 469.49 174.649 470.171 177.941 470.402C177.947 472.663 177.363 477.127 178.128 479.109C178.093 480.338 178.314 481.709 177.562 482.693L166.181 482.523L165.979 472.079Z"/>
	<path fill="#869FFE" transform="scale(0.666667 0.666667)" d="M190.683 470.285C191.097 471.416 190.99 472.742 191.019 473.94C191.093 476.902 190.872 480.064 191.131 482.993L190.898 483.017L182.3 482.829C181.02 482.784 179.616 483.002 178.589 482.22C178.784 481.15 178.4 480.139 178.128 479.109C177.363 477.127 177.947 472.663 177.941 470.402C180.726 470.097 183.85 470.238 186.655 470.362C188.007 470.422 189.369 470.695 190.683 470.285Z"/>
	<path fill="#2A32FE" transform="scale(0.666667 0.666667)" d="M160.747 601.88C164.043 601.881 167.338 601.881 170.633 601.875C172.274 601.871 174.308 602.092 175.902 601.772C176.006 601.751 176.156 601.782 176.208 601.69C176.611 600.973 176.237 590.796 176.242 589.37C176.329 566.534 176.559 543.702 176.558 520.866C176.558 512.367 176.603 503.867 176.584 495.369C176.578 492.297 176.268 489.171 176.352 486.113C176.382 485.01 176.434 484.305 177.048 483.375C178.272 482.47 180.797 482.824 182.3 482.829L190.898 483.017L190.818 601.892L201.949 601.918C197.88 602.832 192.462 602.281 188.238 602.28C179.325 602.277 170.412 602.27 161.499 602.287C156.082 602.296 150.663 602.328 145.246 602.282C143.45 602.267 140.465 602.603 138.831 601.925L144.069 601.864L160.747 601.88Z"/>
	<path fill="#FEFEFE" transform="scale(0.666667 0.666667)" d="M606.982 462.087L599.219 461.839L599.245 372.562C599.357 369.517 600.566 366.968 602.864 364.939C603.852 364.066 604.97 363.304 606.271 363.002C609.489 362.254 613.673 362.748 617.03 362.778C622.232 362.826 627.699 362.505 632.85 363.022C635.11 363.248 636.687 364.415 638.075 366.148C639.194 367.544 639.427 368.15 639.549 369.949C639.925 375.487 639.565 381.26 639.536 386.821C639.477 398.277 639.413 409.732 639.367 421.188C639.332 429.832 639.335 438.475 639.336 447.119C639.337 451.68 639.647 456.499 639.172 461.025C639.309 462.132 639.424 463.135 639.844 464.181C635.599 463.295 623.297 465.082 620.545 462.718C619.088 461.72 609.643 462.374 606.982 462.087Z"/>
	<path fill="#424EFE" transform="scale(0.666667 0.666667)" d="M554.994 296.849L555.412 296.887C559.458 297.216 563.779 297.001 567.803 296.506L567.495 602.104C563.498 602.091 559.003 601.728 555.072 602.252C554.127 602.492 553.63 602.365 552.7 602.201L552.429 297.006L554.994 296.849Z"/>
	<path fill="#3608F9" transform="scale(0.666667 0.666667)" d="M552.429 297.006L554.994 296.849L555.072 602.252C554.127 602.492 553.63 602.365 552.7 602.201L552.429 297.006Z"/>
	<path fill="#01A3F4" transform="scale(0.666667 0.666667)" d="M128.649 455.296C132.018 450.316 136.505 446.282 140.953 442.285C144.905 438.733 148.843 435.162 152.817 431.633C175.411 411.567 199.677 392.632 224.491 375.379C230.606 371.127 237.046 367.309 243.227 363.15C257.234 353.722 271.25 344.212 285.6 335.319C298.371 327.403 311.566 320.224 324.36 312.365C340.942 302.179 357.121 291.35 373.493 280.837C380.54 276.312 387.773 272.081 394.826 267.569C411.969 256.602 429.159 245.391 445.954 233.903C453.526 228.723 461.106 223.609 468.78 218.578C471.753 216.629 474.623 214.389 477.731 212.674C481.734 215.06 486.346 217.422 489.909 220.417C485.584 222.035 482.118 224.57 478.378 227.218C473.168 230.907 468.113 234.807 462.86 238.437C446.494 249.743 430.066 260.962 413.47 271.926C403.25 278.677 392.711 284.79 382.349 291.293C371.943 297.824 361.825 304.811 351.375 311.288C340.566 317.988 329.594 324.43 318.783 331.122C300.331 342.545 282.081 354.263 263.856 366.033C254.059 372.36 244.136 378.558 234.535 385.181C213.943 399.385 193.988 414.313 174.581 430.101C164.732 438.113 155.642 447.441 145.245 454.688L145.312 455.19L147.096 455.677C146.06 455.824 145.086 455.681 144.056 455.564C139.095 454.972 133.696 455.533 128.649 455.296Z"/>
	<path fill="#FEFEFE" transform="scale(0.666667 0.666667)" d="M190.683 470.285C190.381 468.482 190.525 466.475 190.503 464.643C191.441 462.73 192.566 461.075 194.268 459.764C196.917 457.726 200.572 458.482 203.702 458.902C208.288 458.922 212.873 458.942 217.458 458.943C220.107 458.944 223.196 458.674 225.756 459.424C227.117 459.823 227.924 460.45 228.9 461.459L230.105 462.807C230.572 463.646 230.894 464.499 230.983 465.459C231.339 469.298 231.087 473.35 231.084 477.217C231.079 484.375 231.065 491.533 231.053 498.691C231.012 521.681 230.992 544.671 230.968 567.66C230.957 579.006 230.352 590.714 231.002 602.013L204.297 601.804L201.949 601.918L190.818 601.892L190.898 483.017L191.131 482.993C190.872 480.064 191.093 476.902 191.019 473.94C190.99 472.742 191.097 471.416 190.683 470.285Z"/>
	<path fill="#B9F5FE" transform="scale(0.666667 0.666667)" d="M190.683 470.285C190.381 468.482 190.525 466.475 190.503 464.643C191.441 462.73 192.566 461.075 194.268 459.764C196.917 457.726 200.572 458.482 203.702 458.902C203.084 462.849 203.327 467.005 203.319 470.992C203.312 475.314 203.078 479.777 203.521 484.078C202.427 483.58 200.538 483.761 199.312 483.706C196.582 483.583 193.82 483.517 191.131 482.993C190.872 480.064 191.093 476.902 191.019 473.94C190.99 472.742 191.097 471.416 190.683 470.285Z"/>
	<path fill="#50EEFE" transform="scale(0.666667 0.666667)" d="M191.131 482.993C193.82 483.517 196.582 483.583 199.312 483.706C200.538 483.761 202.427 483.58 203.521 484.078C204.213 489.509 204.027 495.034 204.054 500.502C204.094 508.955 204.104 517.409 204.114 525.863C204.142 551.177 204.325 576.49 204.297 601.804L201.949 601.918L190.818 601.892L190.898 483.017L191.131 482.993Z"/>
	<path fill="#424EFE" transform="scale(0.666667 0.666667)" d="M278.356 421.079C278.833 437.037 278.669 453.056 278.719 469.024C278.805 496.786 278.807 524.546 278.634 552.309C278.55 565.732 278.435 579.155 278.358 592.579C278.345 594.907 278.332 597.235 278.319 599.563C278.318 599.774 278.221 601.141 278.31 601.312C278.424 601.531 278.645 601.674 278.812 601.855L282.536 601.936L276.393 602.282C273.172 602.976 269.311 602.56 266.003 602.614C259.361 602.723 252.724 602.706 246.081 602.671C242.217 602.651 238.139 602.898 234.316 602.309C233.16 602.304 232.142 602.207 231.002 602.013C230.352 590.714 230.957 579.006 230.968 567.66C230.992 544.671 231.012 521.681 231.053 498.691C231.065 491.533 231.079 484.375 231.084 477.217C231.087 473.35 231.339 469.298 230.983 465.459C230.894 464.499 230.572 463.646 230.105 462.807C231.669 460.597 230.971 452.904 230.997 449.993L244.46 449.796L244.857 449.002C246.645 448.462 248.496 448.568 250.342 448.413C254.367 448.076 258.665 447.367 262.675 447.976C267.157 448.632 272.189 448.767 276.698 448.27C277.457 448.628 277.415 448.556 278.183 448.472C278.732 445.734 278.389 442.542 278.371 439.749C278.332 433.527 278.21 427.3 278.356 421.079Z"/>
	<path fill="#2A32FE" transform="scale(0.666667 0.666667)" d="M244.857 449.002C246.645 448.462 248.496 448.568 250.342 448.413C254.367 448.076 258.665 447.367 262.675 447.976C261.771 455.097 261.891 462.318 261.849 469.483C261.795 478.623 261.75 487.763 261.758 496.903C261.777 518.405 261.705 539.908 261.754 561.411C261.786 574.99 262.117 588.647 261.732 602.219C266.499 602.215 271.674 601.799 276.393 602.282C273.172 602.976 269.311 602.56 266.003 602.614C259.361 602.723 252.724 602.706 246.081 602.671C242.217 602.651 238.139 602.898 234.316 602.309L247.304 602.407C246.845 598.301 247.2 593.915 247.115 589.767C246.415 555.506 246.723 521.251 246.728 486.984C246.729 477.325 246.677 467.681 246.513 458.023C246.482 456.16 246.903 452.641 246.405 450.938C246.293 450.555 246.01 450.244 245.812 449.897L244.46 449.796L244.857 449.002Z"/>
	<path fill="#424EFE" transform="scale(0.666667 0.666667)" d="M244.46 449.796L245.812 449.897C246.01 450.244 246.293 450.555 246.405 450.938C246.903 452.641 246.482 456.16 246.513 458.023C246.677 467.681 246.729 477.325 246.728 486.984C246.723 521.251 246.415 555.506 247.115 589.767C247.2 593.915 246.845 598.301 247.304 602.407L234.316 602.309C233.16 602.304 232.142 602.207 231.002 602.013C230.352 590.714 230.957 579.006 230.968 567.66C230.992 544.671 231.012 521.681 231.053 498.691C231.065 491.533 231.079 484.375 231.084 477.217C231.087 473.35 231.339 469.298 230.983 465.459C230.894 464.499 230.572 463.646 230.105 462.807C231.669 460.597 230.971 452.904 230.997 449.993L244.46 449.796Z"/>
	<defs>
		<linearGradient id="gradient_0" gradientUnits="userSpaceOnUse" x1="348.56201" y1="600.18799" x2="306.37601" y2="597.44098">
			<stop offset="0" stop-color="#00A7EA"/>
			<stop offset="1" stop-color="#028BF4"/>
		</linearGradient>
	</defs>
	<path fill="url(#gradient_0)" transform="scale(0.666667 0.666667)" d="M318.838 388.588L319.781 386.005C320.511 384.435 321.381 382.861 323.125 382.293C328.024 380.697 335.744 380.251 340.749 381.492C343.602 382.2 346.215 383.553 348.842 384.834C349.977 388.178 349.469 392.52 349.451 396.045C349.421 401.969 349.388 407.894 349.355 413.818C349.269 429.326 349.227 444.833 349.229 460.341C349.234 491.463 349.344 522.584 349.353 553.706C349.358 569.73 349.688 585.838 349.218 601.85L328.485 602.273L312.037 602.197L295.036 601.958L282.536 601.936L278.812 601.855C278.645 601.674 278.424 601.531 278.31 601.312C278.221 601.141 278.318 599.774 278.319 599.563C278.332 597.235 278.345 594.907 278.358 592.579C278.435 579.155 278.55 565.732 278.634 552.309C278.807 524.546 278.805 496.786 278.719 469.024C278.669 453.056 278.833 437.037 278.356 421.079C278.356 418.537 277.915 414.98 279.49 412.882C280.977 410.9 282.442 409.845 284.916 409.484C287.837 408.741 291.498 409.135 294.532 409.146C300.191 409.167 305.846 409.166 311.505 409.099C311.127 407.949 311.346 405.804 311.315 404.557C311.188 399.473 311.218 394.385 311.226 389.301L318.838 388.588Z"/>
	<path fill="#01A3F4" transform="scale(0.666667 0.666667)" d="M311.505 409.099C311.127 407.949 311.346 405.804 311.315 404.557C311.188 399.473 311.218 394.385 311.226 389.301L318.838 388.588L329.103 388.535L328.485 602.273L312.037 602.197C312.267 597.73 312.081 593.181 312.085 588.705C312.092 580.141 312.099 571.576 312.102 563.012C312.108 535.164 312.004 507.317 312.011 479.469C312.014 463.621 312.018 447.772 312.014 431.924C312.012 427.257 312.027 422.59 312 417.923C311.984 415.034 312.168 411.919 311.505 409.099Z"/>
	<defs>
		<linearGradient id="gradient_1" gradientUnits="userSpaceOnUse" x1="295.68799" y1="600.93799" x2="312.327" y2="600.84497">
			<stop offset="0" stop-color="#4295FE"/>
			<stop offset="1" stop-color="#3AC3FE"/>
		</linearGradient>
	</defs>
	<path fill="url(#gradient_1)" transform="scale(0.666667 0.666667)" d="M284.916 409.484C287.837 408.741 291.498 409.135 294.532 409.146C300.191 409.167 305.846 409.166 311.505 409.099C312.168 411.919 311.984 415.034 312 417.923C312.027 422.59 312.012 427.257 312.014 431.924C312.018 447.772 312.014 463.621 312.011 479.469C312.004 507.317 312.108 535.164 312.102 563.012C312.099 571.576 312.092 580.141 312.085 588.705C312.081 593.181 312.267 597.73 312.037 602.197L295.036 601.958L282.536 601.936L278.812 601.855C278.645 601.674 278.424 601.531 278.31 601.312C278.221 601.141 278.318 599.774 278.319 599.563C278.332 597.235 278.345 594.907 278.358 592.579C278.435 579.155 278.55 565.732 278.634 552.309C278.807 524.546 278.805 496.786 278.719 469.024C278.669 453.056 278.833 437.037 278.356 421.079C278.356 418.537 277.915 414.98 279.49 412.882C280.977 410.9 282.442 409.845 284.916 409.484Z"/>
	<path fill="#50EEFE" transform="scale(0.666667 0.666667)" d="M278.356 421.079C278.356 418.537 277.915 414.98 279.49 412.882C280.977 410.9 282.442 409.845 284.916 409.484L295.125 409.54C295.371 456.024 295.197 502.526 295.088 549.012C295.059 561.371 294.997 573.729 294.936 586.088C294.918 589.665 294.931 593.242 294.957 596.819C294.969 598.423 294.752 600.398 295.036 601.958L282.536 601.936L278.812 601.855C278.645 601.674 278.424 601.531 278.31 601.312C278.221 601.141 278.318 599.774 278.319 599.563C278.332 597.235 278.345 594.907 278.358 592.579C278.435 579.155 278.55 565.732 278.634 552.309C278.807 524.546 278.805 496.786 278.719 469.024C278.669 453.056 278.833 437.037 278.356 421.079Z"/>
	<path fill="#FEFEFE" transform="scale(0.666667 0.666667)" d="M470.015 297.923L470.058 297.48C470.643 290.86 470.222 283.879 470.23 277.212C470.233 274.748 469.931 271.836 470.489 269.438C470.873 267.783 471.861 266.296 473.129 265.175C474.125 264.293 475.308 263.615 476.625 263.374C480.306 262.7 484.624 263.09 488.372 263.058C493.89 263.011 499.701 262.586 505.172 263.065C506.975 263.222 508.239 264.024 509.399 265.408C510.122 266.27 510.589 267.187 510.723 268.312C511.107 271.522 510.828 275.047 510.85 278.287C510.897 285.431 510.94 292.575 510.973 299.719C511.079 322.999 511.134 346.277 511.131 369.557C511.121 447.001 510.762 524.445 510.655 601.889C505.353 601.863 474.508 602.426 472.86 601.5L472.58 598.073C473.193 593.1 472.609 587.351 472.61 582.263C472.61 572.885 472.64 563.507 472.705 554.129C472.751 547.41 472.644 540.634 473.32 533.944L470.409 534.027L451.333 535.043L451.731 534.498C452.199 524.53 451.721 514.34 451.649 504.347C451.537 488.732 451.604 473.117 451.64 457.502C451.704 428.65 451.629 399.802 451.782 370.95C451.894 349.884 452.263 328.812 452.227 307.746C452.224 305.908 452.427 303.999 451.75 302.264C452.431 301.242 453.329 300.203 454.251 299.383C457.473 296.521 465.852 297.655 470.015 297.923Z"/>
	<path fill="#E815FD" transform="scale(0.666667 0.666667)" d="M451.75 302.264C452.431 301.242 453.329 300.203 454.251 299.383C457.473 296.521 465.852 297.655 470.015 297.923L470.234 299.062L473.437 301.178L473.32 533.944L470.409 534.027L451.333 535.043L451.731 534.498C452.199 524.53 451.721 514.34 451.649 504.347C451.537 488.732 451.604 473.117 451.64 457.502C451.704 428.65 451.629 399.802 451.782 370.95C451.894 349.884 452.263 328.812 452.227 307.746C452.224 305.908 452.427 303.999 451.75 302.264Z"/>
	<path fill="#FEFEFE" transform="scale(0.666667 0.666667)" d="M413.29 352.124C412.808 344.116 413.237 335.805 413.223 327.768C413.211 321.166 412.664 314.047 413.287 307.5C413.395 306.371 413.791 305.284 414.338 304.293C415.376 302.414 417.573 300.455 419.7 299.952C422.856 299.206 427.107 299.695 430.397 299.674C435.296 299.642 441.251 298.957 446.042 299.769C448.142 300.124 449.927 301.231 451.75 302.264C452.427 303.999 452.224 305.908 452.227 307.746C452.263 328.812 451.894 349.884 451.782 370.95C451.629 399.802 451.704 428.65 451.64 457.502C451.604 473.117 451.537 488.732 451.649 504.347C451.721 514.34 452.199 524.53 451.731 534.498L451.333 535.043C451.119 535.32 450.796 535.541 450.691 535.875C450.386 536.839 450.764 539.346 450.784 540.427C450.874 545.152 450.953 549.876 451.008 554.601C451.19 570.328 451.182 586.06 451.231 601.787C443.423 601.771 435.614 601.736 427.807 601.769C425.758 601.777 422.26 601.335 420.35 601.91C419.119 602.593 417.028 602.343 415.618 602.355C411.643 602.39 407.671 602.348 403.697 602.27L387.344 601.826L349.218 601.85C349.688 585.838 349.358 569.73 349.353 553.706C349.344 522.584 349.234 491.463 349.229 460.341C349.227 444.833 349.269 429.326 349.355 413.818C349.388 407.894 349.421 401.969 349.451 396.045C349.469 392.52 349.977 388.178 348.842 384.834C348.445 381.1 347.609 359.657 348.765 356.608C349.532 354.587 351.042 352.979 353.057 352.179C355.292 351.293 357.801 351.484 360.168 351.475C363.754 351.46 367.34 351.451 370.926 351.432C375.138 351.41 379.82 351 383.986 351.486C385.617 351.676 387.006 352.223 388.492 352.883C390.064 355.983 389.256 363.085 389.249 366.73L401.901 366.715L403.318 366.547L403.134 351.768C406.131 352.53 410.182 352.231 413.29 352.124Z"/>
	<path fill="#E815FD" transform="scale(0.666667 0.666667)" d="M403.134 351.768C406.131 352.53 410.182 352.231 413.29 352.124C413.356 356.306 412.799 361.855 414.194 365.812L417.071 366.34L403.318 366.547L403.134 351.768Z"/>
	<path fill="#3608F9" transform="scale(0.666667 0.666667)" d="M403.318 366.547L417.071 366.34C418.54 366.884 419.951 367.318 420.745 368.789C421.454 370.104 420.681 375.194 420.668 376.903C420.577 388.231 420.555 399.562 420.516 410.891C420.298 474.564 420.295 538.237 420.35 601.91C419.119 602.593 417.028 602.343 415.618 602.355C411.643 602.39 407.671 602.348 403.697 602.27C403.952 567.212 403.026 532.098 403.061 497.028C403.089 469.56 402.936 442.111 402.863 414.647C402.823 399.565 403.172 384.388 402.717 369.32C402.684 368.224 402.489 367.625 401.901 366.715L403.318 366.547Z"/>
	<path fill="#FEFEFE" transform="scale(0.666667 0.666667)" d="M348.842 384.834C348.445 381.1 347.609 359.657 348.765 356.608C349.532 354.587 351.042 352.979 353.057 352.179C355.292 351.293 357.801 351.484 360.168 351.475C363.754 351.46 367.34 351.451 370.926 351.432C375.138 351.41 379.82 351 383.986 351.486C385.617 351.676 387.006 352.223 388.492 352.883C390.064 355.983 389.256 363.085 389.249 366.73L401.901 366.715C402.489 367.625 402.684 368.224 402.717 369.32C403.172 384.388 402.823 399.565 402.863 414.647C402.936 442.111 403.089 469.56 403.061 497.028C403.026 532.098 403.952 567.212 403.697 602.27L387.344 601.826L349.218 601.85C349.688 585.838 349.358 569.73 349.353 553.706C349.344 522.584 349.234 491.463 349.229 460.341C349.227 444.833 349.269 429.326 349.355 413.818C349.388 407.894 349.421 401.969 349.451 396.045C349.469 392.52 349.977 388.178 348.842 384.834Z"/>
	<path fill="#2A32FE" transform="scale(0.666667 0.666667)" d="M389.249 366.73L401.901 366.715C402.489 367.625 402.684 368.224 402.717 369.32C403.172 384.388 402.823 399.565 402.863 414.647C402.936 442.111 403.089 469.56 403.061 497.028C403.026 532.098 403.952 567.212 403.697 602.27L387.344 601.826L386.605 369.089C387.304 368.109 388.302 367.453 389.249 366.73Z"/>
</svg>
