<?xml version="1.0" encoding="utf-8" ?>
<svg xmlns="http://www.w3.org/2000/svg" xmlns:xlink="http://www.w3.org/1999/xlink" width="512" height="512">
	<path transform="scale(0.5 0.5)" d="M922.786 928.011C921.473 933.553 918.157 938.909 913.229 941.907C908.617 944.711 903.144 944.931 898 943.479C893.055 942.083 889.962 938.663 887.469 934.342C887.372 934.174 887.277 934.006 887.183 933.836C885.774 931.273 885.352 928.372 885.164 925.488C884.324 912.539 885.389 899.063 885.411 886.055C885.449 863.006 884.968 839.959 885.016 816.906C885.041 805.271 885.435 793.649 885.451 782.014C885.52 730.014 885.139 678.005 885.114 626.002C885.106 607.239 885.436 588.476 885.336 569.713C885.178 540.328 885.058 510.952 884.973 481.566C884.952 474.098 884.896 466.631 884.861 459.163C884.844 455.504 884.357 450.873 885.37 447.37L885.564 446.75C886.065 445.093 886.599 443.6 887.489 442.102C890.064 437.769 894.379 434.942 899.227 433.749L900 433.566C903.723 432.639 907.559 433.293 911.332 433.672C916.471 436.728 919.718 439.58 921.601 445.5L921.847 446.231C922.712 449.017 922.512 452.077 922.506 454.963C922.496 459.678 922.483 464.394 922.471 469.109C922.439 482.072 922.467 495.035 922.502 507.998C922.694 577.591 922.572 647.176 922.679 716.768C922.765 772.641 923.722 828.624 922.723 884.485C922.557 893.74 922.522 902.984 922.644 912.24C922.712 917.449 923.164 922.817 922.786 928.011Z"/>
	<path transform="scale(0.5 0.5)" d="M390.394 758.158C399.254 758.061 407.997 759.316 416.807 759.858C426.901 760.48 438.549 759.649 448.25 762.535C453.051 763.963 455.692 766.481 458.016 770.75L458.75 772.093C460.62 776.229 462.038 781.698 460.289 786.11L460.019 786.75L459.565 787.899C458.186 790.985 455.288 794.015 453.271 796.723C448.635 802.952 444.387 809.211 439.163 815.006C415.733 840.995 390.009 864.781 365.239 889.454C352.872 901.774 340.414 914.002 328.132 926.406C322.958 931.631 318.122 937.553 312.75 942.501C310.583 944.496 308.027 946.214 305.205 947.114C301.523 948.287 297.41 947.32 293.992 945.825C290.188 944.161 286.59 941.67 283.08 939.471C276.609 935.417 270.254 931.222 263.719 927.269C254.678 921.802 245.318 916.87 236.25 911.459C221.565 902.697 206.716 893.593 191.527 885.749L100.271 944.643L94.0424 948.431C89.4967 950.843 84.3114 952.409 79.2415 950.793L78.5 950.549L76.0362 949.761C71.5898 948.073 67.2777 942.987 65.5239 938.621L65.25 937.894C64.1345 934.978 64.1661 931.09 64.6687 928.018C65.2849 924.254 67.5154 919.737 70.4467 917.25C73.6209 914.557 78.1463 912.441 81.75 910.275C88.4943 906.222 95.1563 902.047 101.866 897.938C122.78 885.129 143.758 871.954 163.888 857.939C166.213 856.32 168.675 854.907 171.008 853.299C177.159 849.062 185.875 842.298 193.826 843.8L194.5 843.938C196.284 844.274 197.868 844.64 199.5 845.48C203.342 847.455 206.964 850.064 210.64 852.342C217.899 856.843 225.237 861.353 232.67 865.554C248.301 874.389 264.092 883.042 279.513 892.234C285.008 895.51 291.337 898.561 296.323 902.555L296.702 902.867C304.572 895.827 311.99 888.256 319.544 880.877C336.685 864.135 353.511 847.072 370.591 830.268C381.321 819.71 392.01 808.583 403.825 799.248C397.093 797.253 389.233 796.096 383.25 792.386C379.23 789.894 375.086 785.443 374.22 780.615C373.329 775.649 374.135 770.238 377.007 766.047C380.165 761.438 385.028 759.029 390.394 758.158Z"/>
	<path transform="scale(0.5 0.5)" d="M979.896 408.583L980.473 355C980.863 350.521 983.685 345.669 987.163 342.857C992.172 338.808 997.305 337.67 1003.63 338.533C1008.12 339.146 1011.62 342.05 1014.35 345.468C1015.23 346.264 1015.57 346.953 1016.11 348L1016.58 348.882C1018.43 352.522 1018.23 356.712 1018.33 360.688C1018.91 385.214 1018.47 409.852 1018.52 434.387C1018.62 476.839 1019.07 519.289 1019.08 561.741C1019.09 580.417 1018.54 599.108 1018.63 617.775C1018.86 662.96 1018.97 708.131 1019.02 753.32C1019.03 767.715 1019.06 782.11 1019.08 796.505C1019.1 804.394 1019.41 812.463 1018.96 820.335L1019 902.822C1019.03 908.204 1019.04 913.586 1019.05 918.968C1019.05 923.578 1019.48 928.372 1017.42 932.655C1015.84 935.926 1014.13 938.49 1011.18 940.691C1006.84 943.937 1001.67 945.004 996.335 944.219L995.5 944.089C993.068 943.735 990.75 942.834 988.75 941.378C984.327 938.156 981.704 933.775 980.82 928.451L979.896 408.583ZM1014.35 345.468C1014.1 346.392 1013.98 346.241 1014.4 347.178C1014.71 347.868 1014.8 348.307 1015 348.998L1015.72 350.96C1016.21 352.162 1016.29 352.973 1016.33 354.259C1016.35 354.901 1016.66 355.192 1016.75 355.75L1016.75 357.25L1017.25 358C1017.55 415.3 1017.4 472.617 1017.44 529.91C1017.45 542.422 1017.91 554.929 1017.89 567.439C1017.85 583.67 1017.41 599.91 1017.4 616.152C1017.39 640.14 1017.81 664.123 1017.77 688.11C1017.71 721.031 1017.45 753.912 1017.87 786.834C1017.94 792.276 1017.94 797.718 1017.96 803.16C1017.96 805.232 1017.58 808.041 1018.04 809.987C1018.24 812.925 1017.63 817.836 1018.96 820.335C1019.41 812.463 1019.1 804.394 1019.08 796.505C1019.06 782.11 1019.03 767.715 1019.02 753.32C1018.97 708.131 1018.86 662.96 1018.63 617.775C1018.54 599.108 1019.09 580.417 1019.08 561.741C1019.07 519.289 1018.62 476.839 1018.52 434.387C1018.47 409.852 1018.91 385.214 1018.33 360.688C1018.23 356.712 1018.43 352.522 1016.58 348.882L1016.11 348C1015.57 346.953 1015.23 346.264 1014.35 345.468ZM1018.04 809.987L1017.98 813.971C1016.85 824.84 1017.43 836.213 1017.43 847.144C1017.43 865.162 1017.36 883.183 1017.46 901.2C1017.52 910.708 1018.79 921.081 1017.12 930.444C1016.99 931.204 1017.24 931.92 1017.42 932.655C1019.48 928.372 1019.05 923.578 1019.05 918.968C1019.04 913.586 1019.03 908.204 1019 902.822L1018.96 820.335C1017.63 817.836 1018.24 812.925 1018.04 809.987Z"/>
	<path transform="scale(0.5 0.5)" d="M1018.04 809.987C1018.24 812.925 1017.63 817.836 1018.96 820.335L1019 902.822C1019.03 908.204 1019.04 913.586 1019.05 918.968C1019.05 923.578 1019.48 928.372 1017.42 932.655C1017.24 931.92 1016.99 931.204 1017.12 930.444C1018.79 921.081 1017.52 910.708 1017.46 901.2C1017.36 883.183 1017.43 865.162 1017.43 847.144C1017.43 836.213 1016.85 824.84 1017.98 813.971L1018.04 809.987ZM1018.04 809.987L1017.98 813.971C1018.97 823.021 1018.03 832.812 1017.99 841.948C1017.92 862.705 1017.74 883.496 1018.07 904.25L1018.43 904.497L1019 902.822L1018.96 820.335C1017.63 817.836 1018.24 812.925 1018.04 809.987Z"/>
	<path transform="scale(0.5 0.5)" d="M1018.04 809.987C1018.24 812.925 1017.63 817.836 1018.96 820.335L1019 902.822L1018.43 904.497L1018.07 904.25C1017.74 883.496 1017.92 862.705 1017.99 841.948C1018.03 832.812 1018.97 823.021 1017.98 813.971L1018.04 809.987Z"/>
	<path transform="scale(0.5 0.5)" d="M1014.35 345.468C1015.23 346.264 1015.57 346.953 1016.11 348L1016.58 348.882C1018.43 352.522 1018.23 356.712 1018.33 360.688C1018.91 385.214 1018.47 409.852 1018.52 434.387C1018.62 476.839 1019.07 519.289 1019.08 561.741C1019.09 580.417 1018.54 599.108 1018.63 617.775C1018.86 662.96 1018.97 708.131 1019.02 753.32C1019.03 767.715 1019.06 782.11 1019.08 796.505C1019.1 804.394 1019.41 812.463 1018.96 820.335C1017.63 817.836 1018.24 812.925 1018.04 809.987C1017.58 808.041 1017.96 805.232 1017.96 803.16C1017.94 797.718 1017.94 792.276 1017.87 786.834C1017.45 753.912 1017.71 721.031 1017.77 688.11C1017.81 664.123 1017.39 640.14 1017.4 616.152C1017.41 599.91 1017.85 583.67 1017.89 567.439C1017.91 554.929 1017.45 542.422 1017.44 529.91C1017.4 472.617 1017.55 415.3 1017.25 358L1016.75 357.25L1016.75 355.75C1016.66 355.192 1016.35 354.901 1016.33 354.259C1016.29 352.973 1016.21 352.162 1015.72 350.96L1015 348.998C1014.8 348.307 1014.71 347.868 1014.4 347.178C1013.98 346.241 1014.1 346.392 1014.35 345.468Z"/>
	<path transform="scale(0.5 0.5)" d="M556.262 927.455C555.381 930.728 554.351 933.407 552.484 936.258C550.25 939.673 545.691 943.236 541.619 944.08L541.062 944.188C538.747 944.676 536.351 944.827 534 944.443C529.448 943.698 524.865 941.384 522.077 937.645C519.922 934.757 518.37 931.447 518.105 927.809C517.737 922.771 517.992 917.504 517.981 912.442C517.96 902.625 517.972 892.807 517.981 882.99C518.003 856.404 517.775 829.819 517.946 803.234C518.017 792.185 518.002 781.137 518.013 770.088C518.017 764.998 517.455 759.235 518.306 754.269C519.11 749.577 521.585 745.307 525.569 742.634C528.628 740.582 531.956 739.613 535.591 739.235C540.482 738.725 545.608 739.014 550.528 739.015C559.52 739.019 568.511 739.01 577.503 739.011C588.913 739.013 600.322 739.019 611.732 739.04C618.588 739.052 626.113 738.492 632.85 739.812L633.5 739.946C637.22 740.657 640.537 742.377 643.337 744.986C645.143 746.67 647.832 750.269 647.846 752.842C649.022 754.875 649.114 756.66 649.209 758.943C649.827 773.773 649.533 788.711 649.518 803.554C649.495 827.406 649.462 851.258 649.47 875.11C649.475 886.544 649.506 897.978 649.528 909.412C649.54 915.449 650.381 922.696 648.954 928.515L647.424 933.083C644.982 937.927 641.584 941.781 636.297 943.53C631.856 944.999 625.564 944.62 621.507 942.304C616.333 939.35 612.917 934.163 611.395 928.537C601.958 927.414 591.869 928.122 582.343 928.083C573.635 928.047 564.943 927.439 556.262 927.455ZM647.846 752.842C647.807 754.298 647.436 755.772 648.255 757C648.441 793.185 648.254 829.368 648.273 865.553C648.279 877.393 648.324 889.233 648.409 901.074C648.446 906.219 648.485 911.363 648.509 916.508C648.528 920.511 648.856 924.458 647.508 928.25C646.956 929.8 646.82 931.21 647.351 932.751L647.424 933.083L648.954 928.515C650.381 922.696 649.54 915.449 649.528 909.412C649.506 897.978 649.475 886.544 649.47 875.11C649.462 851.258 649.495 827.406 649.518 803.554C649.533 788.711 649.827 773.773 649.209 758.943C649.114 756.66 649.022 754.875 647.846 752.842Z"/>
	<path transform="scale(0.5 0.5)" d="M647.846 752.842C649.022 754.875 649.114 756.66 649.209 758.943C649.827 773.773 649.533 788.711 649.518 803.554C649.495 827.406 649.462 851.258 649.47 875.11C649.475 886.544 649.506 897.978 649.528 909.412C649.54 915.449 650.381 922.696 648.954 928.515L647.424 933.083L647.351 932.751C646.82 931.21 646.956 929.8 647.508 928.25C648.856 924.458 648.528 920.511 648.509 916.508C648.485 911.363 648.446 906.219 648.409 901.074C648.324 889.233 648.279 877.393 648.273 865.553C648.254 829.368 648.441 793.185 648.255 757C647.436 755.772 647.807 754.298 647.846 752.842Z"/>
	<path fill="#FD918E" transform="scale(0.5 0.5)" d="M556.262 927.455C556.364 912.094 556.045 896.731 556.047 881.369C556.048 867.303 556.374 853.23 556.319 839.167C556.258 823.451 556.009 807.732 555.92 792.015C555.9 788.534 555.89 785.054 555.87 781.573C555.864 780.37 555.623 778.879 556.164 777.792L610.813 777.705L611.395 928.537C601.958 927.414 591.869 928.122 582.343 928.083C573.635 928.047 564.943 927.439 556.262 927.455Z"/>
	<path fill="#FD918E" transform="scale(0.5 0.5)" d="M911.332 433.672L911.452 432.362C912.587 420.294 917.246 410.847 926.785 403.073C934.985 396.391 945.329 393.856 955.786 394.938C966.275 396.024 973.373 400.504 979.896 408.583L980.82 928.451L922.786 928.011C923.164 922.817 922.712 917.449 922.644 912.24C922.522 902.984 922.557 893.74 922.723 884.485C923.722 828.624 922.765 772.641 922.679 716.768C922.572 647.176 922.694 577.591 922.502 507.998C922.467 495.035 922.439 482.072 922.471 469.109C922.483 464.394 922.496 459.678 922.506 454.963C922.512 452.077 922.712 449.017 921.847 446.231L921.601 445.5C919.718 439.58 916.471 436.728 911.332 433.672Z"/>
	<path transform="scale(0.5 0.5)" d="M1020.91 999.143L1020.58 1000.04C1018.49 1005.33 1015.33 1009.87 1009.89 1012.12C1005.67 1013.87 1000.97 1013.84 996.466 1013.9C934.64 1014.76 872.729 1014.04 810.892 1014.06C685.42 1014.1 559.948 1014 434.476 1014C349.306 1014.01 264.137 1014.03 178.968 1014.04C151.016 1014.04 123.064 1014.03 95.1126 1014.02C80.8429 1014.02 66.2831 1014.59 52.0548 1013.92C50.0576 1013.83 47.9959 1013.57 46.145 1012.78L45.5 1012.5C41.5668 1010.91 38.0482 1008.03 35.75 1004.42C33.3886 1000.71 32.109 995.472 33.0919 991.141C34.2744 985.931 36.9914 981.345 41.6593 978.545C44.1756 977.036 46.8023 975.709 49.7641 975.481C57.67 974.874 65.7306 975.284 73.657 975.4C86.5852 975.589 99.5208 975.791 112.45 975.8C162.515 975.837 212.617 976.214 262.677 975.755C315.06 975.275 367.512 975.973 419.905 975.923C456.487 975.888 493.067 975.441 529.649 975.476C581.502 975.526 633.358 976.057 685.213 975.989C713.985 975.951 742.762 975.388 771.534 975.392C790.943 975.394 810.346 975.95 829.75 975.953C867.08 975.959 904.422 976.121 941.75 975.886C957.246 975.788 972.719 975.248 988.22 975.441C994.306 975.517 1002.02 975.106 1007.9 976.747C1012.5 978.032 1017.17 981.836 1019.27 986.142L1021.38 992.088L1024 991.69L1024 999.429C1022.91 999.489 1021.98 999.339 1020.91 999.143Z"/>
	<path fill="#FEFEFE" transform="scale(0.5 0.5)" d="M1021.38 992.088L1024 991.69L1024 999.429C1022.91 999.489 1021.98 999.339 1020.91 999.143C1021.52 996.756 1021.44 994.521 1021.38 992.088Z"/>
	<path transform="scale(0.5 0.5)" d="M737.418 928.1C735.894 933.976 733.36 939.121 727.906 942.323C726.455 943.176 725.129 943.763 723.5 944.136L722.674 944.332C717.624 945.486 712.561 944.268 708.279 941.41C705.822 939.771 704.113 937.927 702.468 935.5L702.071 934.923C700.37 932.379 699.638 929.279 699.513 926.25C699.097 916.183 699.609 905.946 699.636 895.857C699.69 875.986 699.623 856.107 699.611 836.235C699.574 772.58 699.55 708.927 699.61 645.272C699.635 618.231 699.471 591.19 699.516 564.147C699.528 557.168 699.54 550.189 699.572 543.21C699.59 539.405 699.305 534.969 700.109 531.261C701.216 526.155 704.745 521.69 709.235 519.102C711.513 517.788 714.36 516.687 717 516.45C726.952 515.557 737.738 516.92 747.798 516.956C764.734 517.015 781.636 516.536 798.567 516.457C803.665 516.434 811.163 515.503 815.962 516.83C821.418 518.338 825.915 521.446 828.615 526.508C830.395 529.845 830.626 533.889 830.69 537.625C830.794 543.727 830.412 549.894 830.366 556.006C830.238 572.912 830.076 589.825 830.079 606.731C830.09 673.585 830.045 740.441 830.092 807.296C830.113 837.255 830.08 867.214 830.084 897.173C830.085 904.594 830.128 912.014 830.165 919.435C830.182 922.999 830.748 927.917 829.702 931.287C829.432 932.154 829.072 932.826 828.663 933.627L828.228 934.52C826.12 938.802 822.312 942.345 817.75 943.904C813.517 945.35 807.698 944.925 803.778 942.797C799.966 940.727 797.486 938.052 795.109 934.469L794.662 933.805C793.48 931.996 792.93 930.205 792.342 928.15C784.481 927.345 776.52 927.632 768.627 927.695C758.223 927.778 747.819 927.836 737.418 928.1Z"/>
	<path fill="#FED339" transform="scale(0.5 0.5)" d="M737.418 928.1L737.507 555.176L792.488 555.123L792.342 928.15C784.481 927.345 776.52 927.632 768.627 927.695C758.223 927.778 747.819 927.836 737.418 928.1Z"/>
	<path transform="scale(0.5 0.5)" d="M-0 41.4536C4.96726 34.9069 10.4445 29.2511 16.226 23.4376C21.7062 17.9271 27.4512 10.4875 35.6929 9.57174C41.1165 8.96911 46.6043 10.6919 50.7927 14.1732C54.7833 17.4901 57.897 22.4568 61.1496 26.5139C64.9809 31.2927 69.6097 35.915 72.6328 41.2448C73.8075 43.316 74.7737 46.008 74.9531 48.3916C75.2412 52.2183 74.2812 55.9292 72.25 59.1646L71.8414 59.8309C68.8962 64.4921 64.0977 66.8647 58.9863 68.3861C59.2476 126.792 59.2147 185.223 59.0406 243.629C58.9924 259.805 58.241 275.965 58.3261 292.136C58.3662 299.774 58.6927 307.374 58.8967 315.004C58.9461 316.852 58.4878 321.172 59.3182 322.5C60.3578 310.762 61.9058 299.446 64.4733 287.939C66.0728 280.77 67.7383 271.621 73.7308 266.752C79.5161 262.052 85.4106 262.059 92.4494 262.454L120.303 262.025C121.021 255.003 124.298 248.045 129.856 243.525C133.683 240.413 138.193 238.768 143.141 239.464C147.583 240.089 151.68 242.125 155.796 243.806C160.933 245.904 166.101 247.938 171.25 250.011C193.789 259.082 216.268 268.247 238.75 277.454C273.912 291.853 309.576 304.895 345.006 318.588C345.001 300.204 345.436 281.831 345.423 263.442C345.391 215.265 344.912 167.092 345.017 118.91C345.059 99.5611 345.148 80.2111 345.11 60.8625C345.092 51.6834 344.194 41.817 345.095 32.7423C345.51 28.5758 347.206 24.9233 350.25 22.0143C355.668 16.8369 362.073 16.0236 369.169 16.4844C372.495 16.7003 375.696 17.4779 378.985 17.9341C387.659 19.1372 396.182 20.7322 404.761 22.4844C479.271 37.7037 547.453 76.5821 597.2 134.207C608.564 147.371 618.49 161.776 627.44 176.658C632.877 185.699 638.384 195.282 642.507 205L650.425 223.678C650.983 224.925 651.342 226.18 651.749 227.479L659.047 248.5L662.726 260.778L664.159 266.578C665.568 275.129 667.823 283.631 669.019 292.25C669.93 298.821 670.512 305.776 670.993 312.391C675.141 369.468 665.266 426.283 638.382 476.97C633.521 486.134 628.499 495.141 622.471 503.611C613.883 515.678 604.818 528.215 594.883 539.191C546.066 593.122 479.079 632.468 406.94 644.376C401.669 645.246 396.419 645.84 391.114 646.46C382.88 647.422 373.453 649.5 366.216 644.292C360.977 640.523 358.242 634.609 357.34 628.39L357.249 627.72L284.381 617.133C284.704 622.626 283.079 628.298 279.453 632.476C276.115 636.323 271.192 639.406 266.027 639.644C261.652 639.845 257.028 637.83 252.985 636.309C244.187 633 235.583 629.069 227.176 624.871C216.772 619.677 206.283 614.148 196.498 607.855C140.779 572.018 98.7569 518.466 76.3145 456.244C69.4495 437.211 63.5684 416.499 60.75 396.451C59.7849 389.586 59.4794 382.489 58.9279 375.569C58.8387 374.449 59.0664 374.251 58.25 373.472C57.7302 379.268 58.8908 385.017 58.8581 390.788C58.8069 399.813 58.3099 408.89 58.1997 417.93C58.0734 428.292 58.3505 438.66 58.3471 449.023C58.333 492.188 58.9727 535.344 59.0198 578.5C59.0873 640.309 58.6424 702.117 58.7407 763.925C58.7914 795.819 58.921 827.714 59.0447 859.608C59.1185 878.646 59.5897 897.754 58.886 916.78C58.6506 923.144 59.1014 930.259 56.1265 936.03C54.4073 939.365 50.3949 942.913 46.7015 943.962C41.8161 945.35 35.0958 944.304 30.7186 941.825C26.9902 939.714 23.0742 935.538 22.0322 931.245L21.8658 930.5C19.9172 922.143 20.971 912.203 21.0072 903.636C21.0561 892.069 21.0317 880.502 21.0037 868.935C20.8701 813.6 20.8623 758.262 20.9716 702.928C21.1569 609.177 20.704 515.42 20.7009 421.67C20.6971 303.864 21.4459 186.035 20.5307 68.231C17.6606 68.0599 14.3819 67.951 11.6406 67.0196C5.59771 64.9664 2.69434 60.1359 0 54.7132L-0 41.4536Z"/>
	<path fill="#FED339" transform="scale(0.5 0.5)" d="M383.65 58.75L384.51 58.6658C386.666 58.6688 389.324 59.5623 391.5 59.9694C398.865 61.3473 406.147 62.7492 413.404 64.6351C448.637 73.7915 482.979 88.5521 512.75 109.681C523.945 117.626 534.415 126.651 544.806 135.602C543.25 138.017 540.295 140.208 538.219 142.287C532.115 148.402 525.958 154.455 519.807 160.521C500.631 179.431 481.602 198.548 462.719 217.75L383.021 300.281L383.65 58.75Z"/>
	<path fill="#1792FE" transform="scale(0.5 0.5)" d="M92.4494 262.454L120.303 262.025C120.42 263.314 120.778 264.769 121.277 265.96C122.871 269.77 126.574 272.229 130.085 274.109C136.787 277.697 144.159 280.283 151.236 283.043C160.662 286.719 170.059 290.477 179.396 294.375C229.437 315.271 279.985 334.612 330.413 354.521L160.646 527.004C154.29 519.608 148.713 511.666 143.25 503.602C107.872 451.375 91.4387 388.316 98.0133 325.5C98.7982 318 99.9394 310.522 101.225 303.093C101.917 299.094 102.627 295.075 103.53 291.119C104.581 286.516 106.095 281.728 105.02 277C103.298 269.43 98.5405 266.355 92.4494 262.454Z"/>
	<path fill="#1792FE" transform="scale(0.5 0.5)" d="M284.381 617.133C281.993 610.483 279.164 606.128 272.649 603.004C262.194 597.991 251.211 593.996 240.71 588.982C221.539 579.827 205.291 567.507 189.296 553.69C190.518 551.018 194.318 548.003 196.441 545.897C202.194 540.192 207.976 534.519 213.674 528.759C238.371 503.793 263.086 478.845 287.718 453.813C316.854 424.203 345.961 394.53 374.847 364.679C387.596 351.504 400.043 338.03 412.855 324.918C465.485 271.056 518.736 217.801 571.145 163.732C576.434 169.761 581.025 176.306 585.628 182.862C601.532 205.515 612.627 229.212 621.092 255.499C623.963 264.413 626.76 273.269 628.784 282.425C633.771 304.992 635.513 329.725 633.993 352.782C632.114 381.304 626.26 409.197 615.43 435.727C599.17 475.556 571.607 511.186 539.408 539.417C502.951 571.381 457.809 593.483 410.521 603.718C404.086 605.111 397.531 606.159 391 607.004C383.972 607.913 375.849 607.726 369.366 610.71C362.174 614.02 358.281 619.979 357.249 627.72L284.381 617.133Z"/>
</svg>
